
<svg width="167px" height="127px" viewBox="0 0 167 127" version="1.1" xmlns="http://www.w3.org/2000/svg" xmlns:xlink="http://www.w3.org/1999/xlink">
    <title>google-partners-seeklogo.com</title>
    <g id="Gapstars" stroke="none" stroke-width="1" fill="none" fill-rule="evenodd">
        <g id="google-partners-seeklogo.com">
            <path d="M83.4435215,126.992632 L156.180654,126.992632 C158.707811,126.992632 161.234968,127.00155 163.761882,126.986622 C164.482085,126.982357 165.120564,126.768516 165.683154,126.386782 C166.67091,125.717148 167,124.847631 167,123.857138 C167,84.1110288 167,44.3653068 166.99173,4.61919711 C166.991487,3.82470919 166.855765,3.03080289 166.826091,2.23534561 C166.806389,1.70316666 166.464895,1.30921852 166.062106,0.940279891 C165.252881,0.199494546 164.18948,0 162.994006,0 C109.997888,0.00717340919 57.001527,0.00620404862 4.00516609,0.00756115341 C3.67607621,0.00756115341 3.33944621,-0.0071731272 3.01935584,0.0409071569 C2.28553164,0.150832645 1.62029822,0.383479181 1.07108541,0.809803958 C0.214673401,1.47478531 0.00792809907,2.32976133 0.0076848693,3.21653237 C0,26.6436508 0,50.0707692 0,73.4978877 C0,90.283723 -0.00204432137,107.069558 0.0106036265,123.855394 C0.011090086,124.326503 0.039304739,124.844141 0.276696991,125.259609 C0.913472521,126.373405 1.98635902,127 3.61989014,127 C30.2277672,126.989142 56.8356443,126.992438 83.4435215,126.992632 Z" id="Stroke-3"></path>
            <path d="M114.602839,98.8330605 C115.445682,98.3560173 116.227311,97.616269 117.245568,97.6073245 C117.781355,97.5718775 118.316812,97.6043429 118.852598,97.6338269 C118.893407,98.3530358 118.896698,99.0775452 118.875965,99.8023858 C117.848493,99.9643817 116.642644,99.7169156 115.805725,100.480185 C115.252496,101.021828 114.722634,101.711221 114.708153,102.527495 C114.620282,104.917018 114.757848,107.309522 114.658458,109.698714 C113.917967,109.760663 113.171223,109.766626 112.433694,109.725216 C112.37248,105.795241 112.384328,101.858972 112.4281,97.9286661 C113.0692,97.881293 113.718528,97.8696982 114.359958,97.9786894 C114.421172,98.1936901 114.541296,98.62071 114.602839,98.8330605 M158.348405,97.4218077 C159.179729,97.1388945 160.078521,97.2833326 160.923997,97.436384 C160.997388,98.229137 161.009235,99.0275219 160.994426,99.8259067 C160.13414,99.7815152 159.255753,99.5489566 158.406986,99.7699204 C157.171847,100.193959 156.387585,101.505165 156.402066,102.79285 C156.352042,104.993875 156.428395,107.19755 156.390547,109.401224 C155.620766,109.507565 154.842099,109.513197 154.072317,109.430708 C154.025255,105.511997 154.025255,101.590635 154.072317,97.6752369 C154.675241,97.6252136 155.28376,97.6073245 155.892937,97.6252136 C156.086123,97.922703 156.290828,98.2145607 156.504418,98.5031056 C157.11919,98.1406853 157.698748,97.7163156 158.348405,97.4218077 M143.286492,102.123996 C145.440827,102.209466 147.597794,102.209466 149.752129,102.126978 C149.632334,100.55671 148.063152,99.2865828 146.505817,99.4750812 C144.925774,99.3809976 143.76633,100.751172 143.286492,102.123996 M143.236797,98.3560173 C145.455308,96.6264044 148.953057,96.9354886 150.820411,99.0570058 C151.947273,100.447719 152.494578,102.297918 152.231292,104.086168 C149.257481,104.180582 146.280708,104.071591 143.307226,104.130228 C143.040649,106.313694 145.28845,108.104925 147.355243,107.730579 C148.581166,107.704077 149.310138,106.62576 150.132577,105.87773 C150.840815,105.79226 151.432221,106.331252 152.046663,106.605221 C150.852663,109.598667 146.933327,110.809495 144.161588,109.345238 C140.052357,107.471518 139.733123,100.986712 143.236797,98.3560173 M131.324439,98.5826128 C132.39272,97.9372794 133.475482,97.1153737 134.801454,97.2598117 C137.060774,97.044811 139.106833,99.0719134 139.121643,101.310704 C139.150933,104.012623 139.133161,106.717193 139.133161,109.421764 C138.381152,109.501271 137.622889,109.510215 136.87055,109.439653 C136.774122,106.755622 137.011408,104.057015 136.747793,101.381598 C136.616151,99.6609293 134.508549,99.1278997 133.138806,99.6579477 C131.935919,100.182364 131.251048,101.505165 131.248086,102.789869 C131.198391,104.999507 131.274414,107.212126 131.236567,109.425076 C130.4579,109.507565 129.6766,109.504252 128.900565,109.43369 C128.853832,105.511997 128.85087,101.590635 128.900565,97.6722554 C129.611766,97.6073245 130.32889,97.5897666 131.037457,97.7077023 C131.107557,97.9256846 131.251048,98.3646306 131.324439,98.5826128 M102.467675,106.045358 C102.56147,107.244591 103.85519,107.90152 104.941243,107.833938 C106.632525,107.754431 108.061178,106.266321 108.146088,104.575137 C107.215373,103.732692 105.86011,103.691282 104.677629,103.788678 C103.535956,103.844665 102.321551,104.799414 102.467675,106.045358 M100.568069,99.7785337 C102.391651,96.3729751 108.14905,96.3524358 109.984151,99.7758834 C110.499203,100.904223 110.390927,102.185946 110.405408,103.396774 C110.36756,105.417913 110.455103,107.442034 110.364598,109.463174 C109.773193,109.498289 109.182117,109.495639 108.593673,109.445284 C108.40345,109.168334 108.21915,108.894366 108.028597,108.623379 C106.688144,109.471787 105.113696,110.388107 103.480337,109.828244 C101.115703,109.468805 99.3006779,106.746677 100.339669,104.460183 C100.986693,102.689822 102.909666,101.92059 104.642414,101.79106 C105.868667,101.696976 107.048516,102.118033 108.262921,102.194559 C108.143126,100.759785 107.080768,99.3809976 105.540877,99.4750812 C104.188576,99.2455041 103.05908,100.070391 102.172137,100.989693 C101.568884,100.683259 101.050869,100.244313 100.568069,99.7785337 M122.060404,97.4599049 C122.092657,96.4435378 121.963976,95.4066314 122.195009,94.4078221 C122.926943,94.3902643 123.658877,94.395896 124.393115,94.4432691 C124.45762,95.4390968 124.393115,96.437906 124.460582,97.4334025 C125.221807,97.8431958 126.222621,97.5307988 127.080274,97.6573478 C127.121083,98.3560173 127.121083,99.0599873 127.091793,99.7642886 C126.205179,99.8053673 125.318235,99.8229252 124.440177,99.9438424 C124.42833,102.06801 124.416482,104.19549 124.445772,106.322308 C124.419444,106.873558 124.674502,107.530486 125.265249,107.662998 C125.918197,107.724947 126.573778,107.601049 127.22936,107.577528 C127.308345,108.296405 127.226398,109.021246 127.047693,109.722234 C125.991259,109.784515 124.891054,109.931603 123.863582,109.631132 C123.041143,109.124274 122.189414,108.39082 122.148276,107.344638 C121.917243,104.893497 122.215743,102.424467 121.996229,99.972995 C121.322876,99.8640039 120.649852,99.7669389 119.979461,99.6695425 C119.973537,99.0096328 119.988017,98.3530358 120.029156,97.6987578 C120.702509,97.6278638 121.410747,97.6957762 122.060404,97.4599049 M90.3621307,95.3301057 C90.1863875,97.0948343 90.2331207,98.8830838 90.3265871,100.653775 C91.740431,100.662389 93.1687555,100.765748 94.5766754,100.592157 C96.4966859,99.9319163 96.9798151,97.1564524 95.4343284,95.8690982 C93.932613,94.8997729 92.0362982,95.4566546 90.3621307,95.3301057 M88.0231669,93.0495741 C90.0577067,92.981993 92.0945501,92.9849745 94.1287608,93.0495741 C95.7183478,93.0611689 97.1525962,94.0510335 98.0306538,95.3417005 C98.7533729,96.4554639 98.7915493,97.8696982 98.6042874,99.1481078 C98.4403921,100.453682 97.4596531,101.463755 96.4410668,102.191909 C94.6003711,103.338137 92.3815315,102.810408 90.3443589,102.939939 C90.154135,105.096572 90.3298782,107.268112 90.2653732,109.43369 C89.5133636,109.501271 88.7580629,109.501271 88.0086862,109.436671 C88.0116482,103.974526 87.9793957,98.5117189 88.0231669,93.0495741" id="Fill-5" fill="#606469"></path>
            <path d="M114.602839,98.8330605 C115.445682,98.3560173 116.227311,97.616269 117.245568,97.6073245 C117.781355,97.5718775 118.316812,97.6043429 118.852598,97.6338269 C118.893407,98.3530358 118.896698,99.0775452 118.875965,99.8023858 C117.848493,99.9643817 116.642644,99.7169156 115.805725,100.480185 C115.252496,101.021828 114.722634,101.711221 114.708153,102.527495 C114.620282,104.917018 114.757848,107.309522 114.658458,109.698714 C113.917967,109.760663 113.171223,109.766626 112.433694,109.725216 C112.37248,105.795241 112.384328,101.858972 112.4281,97.9286661 C113.0692,97.881293 113.718528,97.8696982 114.359958,97.9786894 C114.421172,98.1936901 114.541296,98.62071 114.602839,98.8330605 Z M158.348405,97.4218077 C159.179729,97.1388945 160.078521,97.2833326 160.923997,97.436384 C160.997388,98.229137 161.009235,99.0275219 160.994426,99.8259067 C160.13414,99.7815152 159.255753,99.5489566 158.406986,99.7699204 C157.171847,100.193959 156.387585,101.505165 156.402066,102.79285 C156.352042,104.993875 156.428395,107.19755 156.390547,109.401224 C155.620766,109.507565 154.842099,109.513197 154.072317,109.430708 C154.025255,105.511997 154.025255,101.590635 154.072317,97.6752369 C154.675241,97.6252136 155.28376,97.6073245 155.892937,97.6252136 C156.086123,97.922703 156.290828,98.2145607 156.504418,98.5031056 C157.11919,98.1406853 157.698748,97.7163156 158.348405,97.4218077 L158.348405,97.4218077 Z M143.286492,102.123996 C145.440827,102.209466 147.597794,102.209466 149.752129,102.126978 C149.632334,100.55671 148.063152,99.2865828 146.505817,99.4750812 C144.925774,99.3809976 143.76633,100.751172 143.286492,102.123996 L143.286492,102.123996 Z M143.236797,98.3560173 C145.455308,96.6264044 148.953057,96.9354886 150.820411,99.0570058 C151.947273,100.447719 152.494578,102.297918 152.231292,104.086168 C149.257481,104.180582 146.280708,104.071591 143.307226,104.130228 C143.040649,106.313694 145.28845,108.104925 147.355243,107.730579 C148.581166,107.704077 149.310138,106.62576 150.132577,105.87773 C150.840815,105.79226 151.432221,106.331252 152.046663,106.605221 C150.852663,109.598667 146.933327,110.809495 144.161588,109.345238 C140.052357,107.471518 139.733123,100.986712 143.236797,98.3560173 L143.236797,98.3560173 Z M131.324439,98.5826128 C132.39272,97.9372794 133.475482,97.1153737 134.801454,97.2598117 C137.060774,97.044811 139.106833,99.0719134 139.121643,101.310704 C139.150933,104.012623 139.133161,106.717193 139.133161,109.421764 C138.381152,109.501271 137.622889,109.510215 136.87055,109.439653 C136.774122,106.755622 137.011408,104.057015 136.747793,101.381598 C136.616151,99.6609293 134.508549,99.1278997 133.138806,99.6579477 C131.935919,100.182364 131.251048,101.505165 131.248086,102.789869 C131.198391,104.999507 131.274414,107.212126 131.236567,109.425076 C130.4579,109.507565 129.6766,109.504252 128.900565,109.43369 C128.853832,105.511997 128.85087,101.590635 128.900565,97.6722554 C129.611766,97.6073245 130.32889,97.5897666 131.037457,97.7077023 C131.107557,97.9256846 131.251048,98.3646306 131.324439,98.5826128 L131.324439,98.5826128 Z M102.467675,106.045358 C102.56147,107.244591 103.85519,107.90152 104.941243,107.833938 C106.632525,107.754431 108.061178,106.266321 108.146088,104.575137 C107.215373,103.732692 105.86011,103.691282 104.677629,103.788678 C103.535956,103.844665 102.321551,104.799414 102.467675,106.045358 L102.467675,106.045358 Z M100.568069,99.7785337 C102.391651,96.3729751 108.14905,96.3524358 109.984151,99.7758834 C110.499203,100.904223 110.390927,102.185946 110.405408,103.396774 C110.36756,105.417913 110.455103,107.442034 110.364598,109.463174 C109.773193,109.498289 109.182117,109.495639 108.593673,109.445284 C108.40345,109.168334 108.21915,108.894366 108.028597,108.623379 C106.688144,109.471787 105.113696,110.388107 103.480337,109.828244 C101.115703,109.468805 99.3006779,106.746677 100.339669,104.460183 C100.986693,102.689822 102.909666,101.92059 104.642414,101.79106 C105.868667,101.696976 107.048516,102.118033 108.262921,102.194559 C108.143126,100.759785 107.080768,99.3809976 105.540877,99.4750812 C104.188576,99.2455041 103.05908,100.070391 102.172137,100.989693 C101.568884,100.683259 101.050869,100.244313 100.568069,99.7785337 L100.568069,99.7785337 Z M122.060404,97.4599049 C122.092657,96.4435378 121.963976,95.4066314 122.195009,94.4078221 C122.926943,94.3902643 123.658877,94.395896 124.393115,94.4432691 C124.45762,95.4390968 124.393115,96.437906 124.460582,97.4334025 C125.221807,97.8431958 126.222621,97.5307988 127.080274,97.6573478 C127.121083,98.3560173 127.121083,99.0599873 127.091793,99.7642886 C126.205179,99.8053673 125.318235,99.8229252 124.440177,99.9438424 C124.42833,102.06801 124.416482,104.19549 124.445772,106.322308 C124.419444,106.873558 124.674502,107.530486 125.265249,107.662998 C125.918197,107.724947 126.573778,107.601049 127.22936,107.577528 C127.308345,108.296405 127.226398,109.021246 127.047693,109.722234 C125.991259,109.784515 124.891054,109.931603 123.863582,109.631132 C123.041143,109.124274 122.189414,108.39082 122.148276,107.344638 C121.917243,104.893497 122.215743,102.424467 121.996229,99.972995 C121.322876,99.8640039 120.649852,99.7669389 119.979461,99.6695425 C119.973537,99.0096328 119.988017,98.3530358 120.029156,97.6987578 C120.702509,97.6278638 121.410747,97.6957762 122.060404,97.4599049 L122.060404,97.4599049 Z M90.3621307,95.3301057 C90.1863875,97.0948343 90.2331207,98.8830838 90.3265871,100.653775 C91.740431,100.662389 93.1687555,100.765748 94.5766754,100.592157 C96.4966859,99.9319163 96.9798151,97.1564524 95.4343284,95.8690982 C93.932613,94.8997729 92.0362982,95.4566546 90.3621307,95.3301057 L90.3621307,95.3301057 Z M88.0231669,93.0495741 C90.0577067,92.981993 92.0945501,92.9849745 94.1287608,93.0495741 C95.7183478,93.0611689 97.1525962,94.0510335 98.0306538,95.3417005 C98.7533729,96.4554639 98.7915493,97.8696982 98.6042874,99.1481078 C98.4403921,100.453682 97.4596531,101.463755 96.4410668,102.191909 C94.6003711,103.338137 92.3815315,102.810408 90.3443589,102.939939 C90.154135,105.096572 90.3298782,107.268112 90.2653732,109.43369 C89.5133636,109.501271 88.7580629,109.501271 88.0086862,109.436671 C88.0116482,103.974526 87.9793957,98.5117189 88.0231669,93.0495741 L88.0231669,93.0495741 Z" id="Stroke-7" stroke="#FFFFFF" stroke-width="0.25" fill="#FFFFFF"></path>
            <path d="M60.388189,17.1180731 C66.9527249,10.2740006 76.5101941,6.66426059 85.8817217,7.02459831 C91.3726263,7.39699194 96.8661777,8.84437078 101.562363,11.8107941 C103.507472,13.0438457 105.452581,14.363298 107,16.0966697 C105.520076,17.8508045 103.786716,19.366835 102.218453,21.0375831 C100.546963,22.6637912 98.9906111,24.411898 97.2691616,25.9815104 C94.5766465,23.5067002 91.2402834,21.6363599 87.6005244,21.1420676 C83.8251139,20.6949943 79.8379549,20.8798516 76.3745427,22.6071954 C72.5260129,24.3643442 69.2803046,27.3994192 67.1499157,31.0774761 C66.4144204,32.3195696 65.9346776,33.6926037 65.3285474,35 C61.4886198,32.1377263 57.8045259,29.0731812 54,26.1633537 C55.4948124,22.7592338 57.7724327,19.7211448 60.388189,17.1180731" id="Fill-9" stroke="#222200" stroke-width="2" fill="#FFFFFF"></path>
            <path d="M54.6098108,26 C58.434033,28.8401303 62.1371997,31.8312723 65.9970069,34.6249877 C65.4233237,37.3458123 64.5593068,40.1280875 65.0890908,42.9303015 C65.2487244,44.4711433 65.7189784,45.956418 66,47.4769941 C62.9919045,49.8111374 59.933591,52.0844837 56.9494406,54.4536015 C56.198165,55.0465347 55.3757194,55.54958 54.5270008,56 C52.4830257,51.936087 51.1790189,47.4564017 51.0456583,42.9070941 C50.9216097,39.9273924 51.025039,36.9071594 51.6725527,33.9856397 C52.3709497,31.2383391 53.1514914,28.4593325 54.6098108,26" id="Fill-11" stroke="#222220" stroke-width="2" fill="#FFFFFF"></path>
            <path d="M112.751489,34.017777 C113.924562,34.023749 115.106757,33.9291928 116.274292,34.1239454 C118.302493,44.2948742 116.094796,55.5692904 109.457372,63.5952867 C108.7332,64.4741616 108.037696,65.4273544 107.038254,66 C103.367229,63.2528937 99.8590858,60.2934507 96.2258492,57.4932602 C99.4069265,55.058687 101.855362,51.4058319 102.283741,47.3193454 C96.5503093,47.2128452 90.8139457,47.3578314 85.08312,47.2513313 C84.9241476,43.7962147 85.0717183,40.3321402 85.0137325,36.8710517 C85.0456573,35.9208448 84.8892909,34.938124 85.1818263,34.017777 C94.3716052,34.014791 103.56171,34.020763 112.751489,34.017777 Z" id="Fill-13" stroke="#222220" stroke-width="2" fill="#FFFFFF"></path>
            <path d="M66.2159859,47 C66.9416535,48.3883493 67.395846,49.9173801 68.2398572,51.2402571 C70.8743036,55.710171 75.1883194,59.0962659 80.0836496,60.4637984 C83.5068369,61.2880783 87.1039633,61.1806365 90.5274758,60.398326 C92.548421,59.8638032 94.3964024,58.8515001 96.2092709,57.8153584 C99.8350079,60.6491354 103.336549,63.6440751 107,66.4241312 C106.11795,67.5855097 104.915331,68.4071036 103.761481,69.2518646 C98.3023928,73.2413123 91.5421749,74.8297719 84.9438668,75 C78.2847613,74.8596542 71.6087495,72.903878 66.1119475,68.956064 C61.3902314,65.6418208 57.5271569,61.0402907 55,55.7548265 C55.8300311,55.2921553 56.6337274,54.7754275 57.3681733,54.1663669 C60.2857991,51.7328105 63.2752765,49.3976305 66.2159859,47 Z" id="Fill-15" stroke="#222200" stroke-width="2" fill="#FFFFFF"></path>
            <g id="Group-20" transform="translate(8.000000, 93.000000)">
                <path d="M66.9693642,7.07267266 C65.9561882,7.43373327 65.4978622,8.51658507 65.1908889,9.46775205 C67.3226298,9.49118469 69.4569972,9.50570632 71.5884097,9.45290038 C71.3579335,8.75718213 71.1796592,7.97664433 70.5870529,7.49214984 C69.6001419,6.65847607 68.1286399,6.60600017 66.9693642,7.07267266 M64.4203367,6.25088022 C65.4860429,5.13535475 67.0189396,4.45712847 68.5721917,4.58947335 C70.5171221,4.49838311 72.3303987,5.72843146 73.3084452,7.36310532 C73.9798467,8.5400177 74.0208859,9.94894617 73.9942925,11.2730551 C71.0686891,11.6337857 68.0876007,11.2846064 65.1416419,11.4374136 C64.8845722,13.6707748 67.2641899,15.5084215 69.3722922,14.9770617 C70.5752336,14.8536278 71.2499183,13.779357 71.9708952,12.9460133 C72.58714,13.2041023 73.1886107,13.494865 73.7900814,13.7852977 C73.3872405,15.5084215 71.6586688,16.6440792 70.0292479,17.0612461 C68.295095,17.5952462 66.4351979,17.0140508 64.9663223,16.0513326 C63.3838503,14.8948825 62.7850061,12.8575633 62.5952408,10.9908734 C62.7239398,9.30042323 63.1530458,7.46310657 64.4203367,6.25088022 M49.1173067,7.02844768 C46.5653243,8.2261524 46.2383239,12.0446819 48.0282902,14.0377761 C49.0326018,15.1381198 50.7992578,15.3410927 52.0839493,14.6453744 C54.6008022,13.0895794 54.659242,8.83969141 52.1831001,7.22217947 C51.2575837,6.70831168 50.0983081,6.6498951 49.1173067,7.02844768 M44.8833732,8.91592998 C45.4937084,6.45319298 47.847061,4.33105429 50.4663477,4.59211365 C51.7451296,4.49838311 52.7730798,5.34063784 53.812521,5.94856622 C53.9146265,5.62248954 54.0196869,5.29674291 54.1217925,4.9739666 C54.8050133,4.92974163 55.4885624,4.92677129 56.1717832,4.96802593 C56.2476237,8.73969016 56.1803194,12.5172951 56.2036296,16.2922597 C56.2505785,18.1470683 55.4767431,20.1431328 53.868006,21.1612973 C52.4516607,22.07418 50.6794233,22.092002 49.0618217,21.9068512 C47.2981205,21.6751651 45.7126936,20.3454455 45.1870634,18.6342031 C45.7360039,18.2176962 46.3696493,17.6803958 47.1083552,17.8209916 C47.7390458,18.464234 48.2676308,19.2533527 49.0939964,19.6675493 C50.5888087,20.4012218 52.5219198,19.7850425 53.4618819,18.4404713 C53.9963766,17.6539928 53.9553374,16.6675119 53.9671567,15.7575995 C52.7379502,16.544408 51.3889092,17.4193364 49.864877,17.2427666 C48.349381,16.9991992 46.7406438,16.3651979 45.8791487,15.0123757 C44.6092313,13.2892519 44.3521616,10.9585297 44.8833732,8.91592998 M36.240515,6.95517944 C33.1632307,7.90601639 32.7748356,12.6730726 35.3297728,14.4222693 C36.591154,15.290927 38.509491,15.2938974 39.662857,14.2285375 C41.5460644,12.7522815 41.6248597,9.66445417 40.0830986,7.91492739 C39.1575823,6.82910526 37.5577096,6.57629683 36.240515,6.95517944 M35.7122583,4.77726448 C37.2481098,4.4307255 38.9678169,4.47792081 40.343123,5.32314588 C43.5783262,6.99346375 44.457222,11.7011133 42.3783397,14.6014795 C41.3096786,16.3123919 39.2829981,17.2256046 37.3209954,17.2751102 C35.4640531,17.1315441 33.5046769,16.3272436 32.4741002,14.6922397 C31.4287494,13.3156549 31.2593395,11.4902195 31.4372856,9.81990166 C31.6565991,7.46310657 33.5076318,5.47001239 35.7122583,4.77726448 M22.8269304,6.98719304 C21.4545791,7.44528457 20.5346441,8.8423317 20.4647133,10.2690822 C20.3245234,11.7011133 20.6019485,13.3334769 21.8222905,14.2460295 C23.6821876,15.904466 27.025406,14.8565982 27.6331147,12.4321455 C27.93385,10.9001132 27.9745609,9.00107956 26.6957791,7.88258375 C25.7728893,6.76408795 24.1408418,6.56771586 22.8269304,6.98719304 M22.5465505,4.7419505 C24.2255468,4.37791956 26.0824891,4.57495172 27.5044157,5.61060821 C30.2753834,7.4099706 31.0140892,11.5222331 29.2825627,14.2902545 C28.2578957,16.242094 26.0036938,17.2520076 23.8808174,17.2665292 C22.4500263,17.0906195 20.966705,16.6209766 19.9331734,15.5668381 C18.1957373,13.9087316 17.6471251,11.2199191 18.330346,8.95091392 C18.797208,6.8756405 20.5549996,5.31423487 22.5465505,4.7419505 M58.4929611,0.45971885 C59.2520224,0.321763333 60.0258578,0.324733667 60.7967383,0.368628604 C60.8988439,5.7812374 60.8170938,11.1964865 60.8374492,16.6117356 C60.0931621,16.8935873 59.2841971,16.7411101 58.5133165,16.7147072 C58.4548767,11.2961577 58.4929611,5.87793828 58.4929611,0.45971885 M3.47973228,1.63366089 C5.85967831,-0.256791741 9.25509861,-0.385836256 12.0260663,0.630018005 C13.0188869,1.10230113 14.1459878,1.66600453 14.616133,2.73136436 C14.1459878,3.24787245 13.6525323,3.74688858 13.1183659,4.1960691 C12.3153106,3.54160549 11.5122553,2.83994657 10.5138533,2.5112296 C8.05806685,1.78052741 5.1383731,2.5316919 3.6287867,4.69805557 C2.34967652,6.19807429 2.29714633,8.30503127 2.56308043,10.1661106 C3.11464745,13.0776981 6.08424488,15.2146885 9.00426694,14.9565994 C11.6379995,14.9800321 14.2366024,12.7668031 14.2306928,10.0400364 C12.3300847,9.89911057 10.4261936,10.0515877 8.52263074,9.96379784 C8.22747672,9.36478047 8.250787,8.68391389 8.37653114,8.04694224 C11.0450649,7.77697188 13.7520114,7.96179266 16.4353193,7.95024136 C16.7183257,10.3453208 16.3535692,13.0456845 14.5462022,14.7892706 C11.6028699,17.9444255 6.25365475,17.9827098 3.0417618,15.2202991 C1.00949999,13.477043 -0.170131139,10.7532466 0.019962494,8.06773458 C0.154242798,5.54328064 1.47964521,3.14820124 3.47973228,1.63366089" id="Fill-17" fill="#606469"></path>
                <path d="M66.9693642,7.07267266 C65.9561882,7.43373327 65.4978622,8.51658507 65.1908889,9.46775205 C67.3226298,9.49118469 69.4569972,9.50570632 71.5884097,9.45290038 C71.3579335,8.75718213 71.1796592,7.97664433 70.5870529,7.49214984 C69.6001419,6.65847607 68.1286399,6.60600017 66.9693642,7.07267266 M64.4203367,6.25088022 C65.4860429,5.13535475 67.0189396,4.45712847 68.5721917,4.58947335 C70.5171221,4.49838311 72.3303987,5.72843146 73.3084452,7.36310532 C73.9798467,8.5400177 74.0208859,9.94894617 73.9942925,11.2730551 C71.0686891,11.6337857 68.0876007,11.2846064 65.1416419,11.4374136 C64.8845722,13.6707748 67.2641899,15.5084215 69.3722922,14.9770617 C70.5752336,14.8536278 71.2499183,13.779357 71.9708952,12.9460133 C72.58714,13.2041023 73.1886107,13.494865 73.7900814,13.7852977 C73.3872405,15.5084215 71.6586688,16.6440792 70.0292479,17.0612461 C68.295095,17.5952462 66.4351979,17.0140508 64.9663223,16.0513326 C63.3838503,14.8948825 62.7850061,12.8575633 62.5952408,10.9908734 C62.7239398,9.30042323 63.1530458,7.46310657 64.4203367,6.25088022 M48.0282902,14.0377761 C49.0326018,15.1381198 50.7992578,15.3410927 52.0839493,14.6453744 C54.6008022,13.0895794 54.659242,8.83969141 52.1831001,7.22217947 C51.2575837,6.70831168 50.0983081,6.6498951 49.1173067,7.02844768 C46.5653243,8.2261524 46.2383239,12.0446819 48.0282902,14.0377761 Z M44.8833732,8.91592998 C45.4937084,6.45319298 47.847061,4.33105429 50.4663477,4.59211365 C51.7451296,4.49838311 52.7730798,5.34063784 53.812521,5.94856622 C53.9146265,5.62248954 54.0196869,5.29674291 54.1217925,4.9739666 C54.8050133,4.92974163 55.4885624,4.92677129 56.1717832,4.96802593 C56.2476237,8.73969016 56.1803194,12.5172951 56.2036296,16.2922597 C56.2505785,18.1470683 55.4767431,20.1431328 53.868006,21.1612973 C52.4516607,22.07418 50.6794233,22.092002 49.0618217,21.9068512 C47.2981205,21.6751651 45.7126936,20.3454455 45.1870634,18.6342031 C45.7360039,18.2176962 46.3696493,17.6803958 47.1083552,17.8209916 C47.7390458,18.464234 48.2676308,19.2533527 49.0939964,19.6675493 C50.5888087,20.4012218 52.5219198,19.7850425 53.4618819,18.4404713 C53.9963766,17.6539928 53.9553374,16.6675119 53.9671567,15.7575995 C52.7379502,16.544408 51.3889092,17.4193364 49.864877,17.2427666 C48.349381,16.9991992 46.7406438,16.3651979 45.8791487,15.0123757 C44.6092313,13.2892519 44.3521616,10.9585297 44.8833732,8.91592998 M36.240515,6.95517944 C33.1632307,7.90601639 32.7748356,12.6730726 35.3297728,14.4222693 C36.591154,15.290927 38.509491,15.2938974 39.662857,14.2285375 C41.5460644,12.7522815 41.6248597,9.66445417 40.0830986,7.91492739 C39.1575823,6.82910526 37.5577096,6.57629683 36.240515,6.95517944 M35.7122583,4.77726448 C37.2481098,4.4307255 38.9678169,4.47792081 40.343123,5.32314588 C43.5783262,6.99346375 44.457222,11.7011133 42.3783397,14.6014795 C41.3096786,16.3123919 39.2829981,17.2256046 37.3209954,17.2751102 C35.4640531,17.1315441 33.5046769,16.3272436 32.4741002,14.6922397 C31.4287494,13.3156549 31.2593395,11.4902195 31.4372856,9.81990166 C31.6565991,7.46310657 33.5076318,5.47001239 35.7122583,4.77726448 M22.8269304,6.98719304 C21.4545791,7.44528457 20.5346441,8.8423317 20.4647133,10.2690822 C20.3245234,11.7011133 20.6019485,13.3334769 21.8222905,14.2460295 C23.6821876,15.904466 27.025406,14.8565982 27.6331147,12.4321455 C27.93385,10.9001132 27.9745609,9.00107956 26.6957791,7.88258375 C25.7728893,6.76408795 24.1408418,6.56771586 22.8269304,6.98719304 M22.5465505,4.7419505 C24.2255468,4.37791956 26.0824891,4.57495172 27.5044157,5.61060821 C30.2753834,7.4099706 31.0140892,11.5222331 29.2825627,14.2902545 C28.2578957,16.242094 26.0036938,17.2520076 23.8808174,17.2665292 C22.4500263,17.0906195 20.966705,16.6209766 19.9331734,15.5668381 C18.1957373,13.9087316 17.6471251,11.2199191 18.330346,8.95091392 C18.797208,6.8756405 20.5549996,5.31423487 22.5465505,4.7419505 M58.4929611,0.45971885 C59.2520224,0.321763333 60.0258578,0.324733667 60.7967383,0.368628604 C60.8988439,5.7812374 60.8170938,11.1964865 60.8374492,16.6117356 C60.0931621,16.8935873 59.2841971,16.7411101 58.5133165,16.7147072 C58.4548767,11.2961577 58.4929611,5.87793828 58.4929611,0.45971885 M12.0260663,0.630018005 C13.0188869,1.10230113 14.1459878,1.66600453 14.616133,2.73136436 C14.1459878,3.24787245 13.6525323,3.74688858 13.1183659,4.1960691 C12.3153106,3.54160549 11.5122553,2.83994657 10.5138533,2.5112296 C8.05806685,1.78052741 5.1383731,2.5316919 3.6287867,4.69805557 C2.34967652,6.19807429 2.29714633,8.30503127 2.56308043,10.1661106 C3.11464745,13.0776981 6.08424488,15.2146885 9.00426694,14.9565994 C11.6379995,14.9800321 14.2366024,12.7668031 14.2306928,10.0400364 C12.3300847,9.89911057 10.4261936,10.0515877 8.52263074,9.96379784 C8.22747672,9.36478047 8.250787,8.68391389 8.37653114,8.04694224 C11.0450649,7.77697188 13.7520114,7.96179266 16.4353193,7.95024136 C16.7183257,10.3453208 16.3535692,13.0456845 14.5462022,14.7892706 C11.6028699,17.9444255 6.25365475,17.9827098 3.0417618,15.2202991 C1.00949999,13.477043 -0.170131139,10.7532466 0.019962494,8.06773458 C0.154242798,5.54328064 1.47964521,3.14820124 3.47973228,1.63366089 C5.85967831,-0.256791741 9.25509861,-0.385836256 12.0260663,0.630018005 Z" id="Stroke-19" stroke="#5F6368" fill="#FFFFFF"></path>
            </g>
        </g>
    </g>
</svg>