
<svg width="276px" height="80px" viewBox="0 0 276 80" version="1.1" xmlns="http://www.w3.org/2000/svg" xmlns:xlink="http://www.w3.org/1999/xlink">
    <title>badge-stars-blue-dark-xl</title>
    <g id="Gapstars" stroke="none" stroke-width="1" fill="none" fill-rule="evenodd">
        <g id="badge-stars-blue-dark-xl" fill-rule="nonzero">
            <g id="logo-type" transform="translate(88.000000, 39.000000)" fill="#FFFFFF">
                <path d="M11.5074062,19.8513188 C11.0104876,19.3832314 10.4102065,18.9760838 9.70742783,18.6263431 C9.00335171,18.2766023 8.20283274,17.9202377 7.30673586,17.5572493 C6.62817602,17.2984764 6.04562655,17.0516266 5.56168234,16.8180245 C5.0764407,16.5848641 4.66991026,16.3313904 4.34382095,16.0598114 C4.01643421,15.7873492 3.77511082,15.4822093 3.61639096,15.1461579 C3.45810358,14.8092233 3.37939237,14.4201809 3.37939237,13.9794723 C3.37939237,13.1236674 3.73056547,12.4952822 4.43377662,12.0934336 C5.1365553,11.6915851 5.96042815,11.4911024 6.90669262,11.4911024 C7.99740512,11.4911024 8.93156017,11.6019419 9.70829279,11.8218547 C10.483728,12.0430922 11.0533031,12.2559394 11.4170181,12.4639292 L11.4135582,9.14050912 C11.4135582,9.14050912 11.2915991,9.10341541 11.2163477,9.08089423 C10.8651746,8.97844493 10.4586442,8.88041154 9.9989188,8.78944363 C9.53832847,8.69803412 9.0409774,8.62031396 8.50773057,8.55584155 C7.97534869,8.49136915 7.44123689,8.45913294 6.90885501,8.45913294 C4.77413774,8.45913294 3.09092875,8.98374403 1.85403827,10.0334078 C0.618012758,11.0821884 0,12.5019061 0,14.290353 C0,15.1978241 0.145313007,15.9622196 0.4363715,16.5844225 C0.727429992,17.2061838 1.11493134,17.7383019 1.59930803,18.1790105 C2.0841172,18.6197192 2.65931452,19.0016961 3.32662991,19.3258245 C3.99308033,19.6495113 4.68937182,19.9674574 5.41766677,20.2783381 C6.92053195,20.9270364 8,21.5099377 8.65304357,22.0279249 C9.30868202,22.5472368 9.63520381,23.2476015 9.63520381,24.1285772 C9.63520381,24.9843821 9.30176235,25.6061434 8.63531193,25.9951858 C7.96799654,26.3842282 6.94518326,26.597517 5.56297978,26.597517 C4.15482755,26.575879 3.19039896,26.4880023 2.18142502,26.1303129 C1.32079144,25.8145747 0.733484701,25.5959868 0.326521786,25.4299483 L0.327819224,28.7869293 C0.649583739,28.90086 1.16380149,29.0730808 1.63520381,29.2223388 C2.68310088,29.5301283 3.89015029,29.6506829 5.56211482,29.6506829 C7.96280679,29.6506829 9.81035788,29.1715558 11.1077954,28.2119767 C12.404368,27.2532809 13.0530868,25.8393039 13.0530868,23.9731368 C13.0530868,23.0139994 12.9190183,22.2032368 12.6521786,21.5426154 C12.385339,20.8811109 12.0038923,20.3176397 11.5074062,19.8513188 Z M52.9748081,26.1969932 C52.5393015,26.0411113 52.1578549,25.6684078 51.8672289,25.2921716 C51.5761704,24.9168186 51.3582009,24.3979482 51.2124554,23.7373268 C51.0671424,23.0758223 50.9944859,22.2394473 50.9944859,21.2286437 L50.9944859,11.8951589 L56.6240675,11.8951589 L56.6240675,8.86230628 L50.9944859,8.86230628 L50.9992432,2.50515041 L47.6124986,3.35565626 L47.6124986,21.2675037 C47.6124986,22.6161252 47.7149962,23.8004744 47.9212888,24.825409 C48.1284463,25.8499021 48.4778895,26.7428007 48.9869175,27.4422822 C49.4968105,28.1426468 50.1373121,28.7171578 50.9737269,29.0682233 C51.8931776,29.4811116 54.202184,29.9677458 56.6279598,29.3751296 L56.6279598,26.2018508 C54.6869932,26.6787699 53.4116121,26.351992 52.9748081,26.1969932 Z M43.0065953,8.59337686 C42.6307709,8.55451678 42.296032,8.53552833 42.0062709,8.53552833 C40.5271921,8.53552833 39.1938588,8.67109702 38.0062709,8.94400076 C36.8186831,9.21602133 35.8248459,9.50747193 35.024327,9.81879416 L35.024327,29.1839203 L38.4058817,29.1839203 L38.4058817,12.1905838 C38.5987674,12.138476 39.0065953,12.0417674 39.6233106,11.8986916 C40.2413234,11.7564991 40.8649584,11.6858444 41.4959455,11.6858444 C42.4655638,11.6858444 43.2595956,11.7564991 43.8780409,11.8986916 C44.4969186,12.0408842 44.9376149,12.1654131 45.2053195,12.2678624 L45.2053195,8.96033966 C44.9021516,8.89586725 44.4778895,8.81505595 44.114607,8.74881718 C43.7517569,8.68478636 43.3819872,8.63223694 43.0065953,8.59337686 Z M27.5783328,24.4986311 C26.619094,25.8335632 25.3168991,26.5003668 23.6695859,26.5003668 C22.0209752,26.5003668 20.7183479,25.83268 19.760839,24.4986311 C18.8028976,23.1645822 18.3245756,21.3553805 18.3245756,19.0736756 C18.3245756,16.7932954 18.8028976,14.9845353 19.760839,13.6496032 C20.7183479,12.3155543 22.0218402,11.6469843 23.6695859,11.6469843 C25.3181966,11.6469843 26.6208239,12.3155543 27.5783328,13.6496032 C28.5358417,14.9845353 29.0137324,16.7932954 29.0137324,19.0736756 C29.0145962,21.3549389 28.5358417,23.1628158 27.5783328,24.4986311 Z M30.0508163,11.373639 C29.2628392,10.4405554 28.3234944,9.72120237 27.2314845,9.21513814 C26.1412045,8.70907391 24.9523192,8.45648339 23.6687209,8.45648339 C22.3825278,8.45648339 21.19494,8.70863232 20.1050924,9.21513814 C19.0148124,9.72120237 18.0741702,10.4392307 17.2870581,11.373639 C16.4995135,12.3062809 15.8871229,13.4283657 15.4507514,14.7376855 C15.013515,16.0470052 14.795113,17.4910105 14.795113,19.0723508 C14.795113,20.6810698 15.013515,22.1325821 15.4507514,23.4282125 C15.8871229,24.7256093 16.4986485,25.8384207 17.2870581,26.7723874 C18.0737377,27.7045877 19.013515,28.4239408 20.1050924,28.9304466 C21.1953725,29.4365109 22.3838253,29.6886598 23.6687209,29.6886598 C24.9536166,29.6886598 26.1420694,29.4369524 27.2314845,28.9304466 C28.322197,28.4243824 29.2615418,27.7067957 30.0508163,26.7723874 C30.8383609,25.8393039 31.4507514,24.7238429 31.8871229,23.4282125 C32.3234944,22.1325821 32.5414639,20.679745 32.5414639,19.0723508 C32.5414639,17.4923353 32.3234944,16.0465636 31.8871229,14.7376855 C31.4507514,13.4292489 30.8383609,12.3071641 30.0508163,11.373639 L30.0508163,11.373639 Z" id="Fill-1"></path>
                <path d="M70.7899232,2.30908364 C70.2411071,2.30908364 69.7740296,2.50250086 69.392583,2.88977688 C69.0068115,3.2774945 68.8165207,3.79989763 68.8165207,4.45654467 C68.8165207,5.11319171 69.0068115,5.63515324 69.392583,6.02242927 C69.776192,6.41014689 70.2424046,6.60268092 70.7899232,6.60268092 C71.3391718,6.60268092 71.8053844,6.4092637 72.1889934,6.02242927 C72.5730349,5.63515324 72.7650557,5.11230852 72.7650557,4.45654467 C72.7650557,3.79989763 72.5730349,3.2774945 72.1889934,2.88977688 C71.8053844,2.50161767 71.3391718,2.30908364 70.7899232,2.30908364 Z M96.3468483,26.5462924 C95.9096118,26.3908521 95.5298951,26.0190317 95.2388366,25.6419123 C94.9482106,25.2665593 94.7298086,24.7481305 94.5844956,24.0870675 C94.4387501,23.425563 94.3660936,22.5896297 94.3660936,21.5779428 L94.3660936,12.2448996 L99.9961077,12.2448996 L99.9961077,9.21248859 L94.3660936,9.21248859 L94.3660936,2.95204133 L90.9845389,3.57380262 L90.9845389,21.6168029 C90.9845389,22.9654243 91.0870364,24.1497736 91.293329,25.1747082 C91.5000541,26.1992012 91.8490648,27.0920999 92.3589577,27.7915813 C92.8688507,28.4919459 93.5093524,29.0664569 94.3466321,29.4175224 C95.2660828,29.8304108 97.5750892,30.3170449 100,29.7244287 L100,26.5511499 C98.0581685,27.0271859 96.7827873,26.7008495 96.3468483,26.5462924 Z M87.2323494,20.2001763 C86.7358633,19.7334138 86.1351497,19.3262661 85.4323711,18.9765254 C84.7287274,18.6263431 83.9286409,18.2690953 83.0321116,17.90699 C82.3535517,17.6482172 81.7710023,17.4009257 81.2870581,17.1668821 C80.8013839,16.9346048 80.395286,16.6811311 80.0687642,16.4086689 C79.7413774,16.13709 79.4991891,15.83195 79.3413342,15.4958986 C79.1839118,15.1580809 79.105633,14.7699217 79.105633,14.3283298 C79.105633,13.4725249 79.4563737,12.8454645 80.1600173,12.4422912 C80.862796,12.0404426 81.6871013,11.8404015 82.6342307,11.8404015 C83.7245108,11.8404015 84.6582333,11.9507995 85.4345335,12.1711538 C86.2099686,12.3919497 86.7795437,12.604797 87.1432587,12.8127867 L87.1406639,9.4928994 C87.1406639,9.4928994 87.0096227,9.44829862 86.9434533,9.42842699 C86.5922802,9.32641928 86.1857498,9.2279443 85.725592,9.1365348 C85.2658666,9.04556688 84.7672181,8.96784672 84.2348362,8.90381591 C83.7028868,8.8393435 83.1674776,8.8071073 82.6363931,8.8071073 C80.5016759,8.8071073 78.8180344,9.33171838 77.5815764,10.3809406 C76.3464158,11.4314875 75.7266732,12.850322 75.7266732,14.6400937 C75.7266732,15.5475649 75.8719862,16.3119603 76.1634771,16.9337216 C76.4549681,17.5554829 76.8416045,18.087601 77.3264137,18.5278681 C77.8112228,18.9685767 78.3864202,19.3505536 79.0537355,19.6751236 C79.720186,19.9983688 80.4173424,20.3167565 81.1443399,20.6276372 C82.6472051,21.2763356 83.7266732,21.8587952 84.3797167,22.377224 C85.0344902,22.896536 85.361877,23.5969006 85.361877,24.4778763 C85.361877,25.3336812 85.0284355,25.9558841 84.3619851,26.3449265 C83.6942372,26.7339689 82.6714239,26.9468162 81.2896529,26.9468162 C79.8810682,26.9251782 78.9166396,26.8373014 77.9076657,26.479612 C77.0478971,26.1634323 76.4597254,25.9452859 76.0536274,25.7792474 L76.0557898,29.1362284 C76.3758244,29.2506007 76.8909071,29.4223799 77.3623094,29.571638 C78.4102065,29.8789859 79.6172559,29.999982 81.2896529,29.999982 C83.6899124,29.999982 85.5374635,29.5208549 86.8349011,28.5612759 C88.1314737,27.60258 88.7806249,26.188603 88.7806249,24.3219944 C88.7806249,23.3628569 88.6461239,22.5520944 88.3797167,21.891473 C88.1107147,21.23041 87.7288355,20.6664973 87.2323494,20.2001763 Z M69.0997946,29.5327779 L72.4809169,29.5327779 L72.4809169,9.31272993 L69.0997946,9.31272993 L69.0997946,29.5327779 Z M63.6756406,26.0724644 C63.4563737,25.8388623 63.2998162,25.5279816 63.2016434,25.1393808 C63.1047681,24.7498968 63.0563304,24.2584052 63.0563304,23.6618146 L63.0563304,0 L59.6760731,0.830634217 L59.6760731,24.2447158 C59.6760731,26.1638739 60.1124446,27.5756429 60.9838902,28.4831141 C61.8570656,29.3910269 63.5536815,29.9527317 65.8938264,29.9827599 L65.8938264,26.8889676 C65.361012,26.8116891 64.9116661,26.7140973 64.5488161,26.5970754 C64.1842361,26.4809368 63.8936101,26.3056248 63.6756406,26.0724644 L63.6756406,26.0724644 Z" id="Fill-3"></path>
            </g>
            <g id="stars_line" transform="translate(0.000000, 19.000000)" fill="#FFFFFF">
                <polygon id="Star" points="29.0084194 37.2790452 22.3617073 46 19.4716593 35.4284096 9.11030881 31.8123824 18.2874165 25.8011292 18.5302814 14.8452779 27.0920429 21.701905 30.5217906 20.6723509 30.6567156 37.3581058"></polygon>
                <polygon id="Star-2" points="10.31844 13.7092791 8.23926879 18.7793141 5.47308636 14.0471637 0 13.6390521 3.65359039 9.55042824 2.34990582 4.22775281 7.37486443 6.4330568 12.0419402 3.55110036 11.4933929 9.00274609 15.6809321 12.5445712"></polygon>
                <polygon id="Star-2_1_" points="29.6211114 8.1255713 27.957332 12.182836 25.7450054 8.3967623 21.3668018 8.06991973 24.2887008 4.79972731 23.2469034 0.541056957 27.265897 2.30512348 31 0 30.5616045 4.3615816 30.9619556 7.83494642"></polygon>
            </g>
            <g id="stars_line_1_" transform="translate(260.500000, 42.000000) scale(-1, 1) translate(-260.500000, -42.000000) translate(245.000000, 19.000000)" fill="#FFFFFF">
                <polygon id="Star_1_" points="29.0080055 37.2790452 22.3613882 46 19.4713815 35.4284096 9.1101788 31.8123824 18.2875979 25.8011292 18.530017 14.8452779 27.0916563 21.701905 30.5213551 20.6723509 30.6558357 37.3581058"></polygon>
                <polygon id="Star-2_2_" points="10.3182927 13.7092791 8.23915122 18.7793141 5.47345063 14.0471637 0 13.6390521 3.65309588 9.55042824 2.35119939 4.22775281 7.37475919 6.4330568 12.0422107 3.55110036 11.4941136 9.00274609 15.6807084 12.5445712"></polygon>
                <polygon id="Star-2_3_" points="29.6206887 8.12645466 27.9569331 12.182836 25.744638 8.3967623 21.3660545 8.06991973 24.2887966 4.79972731 23.2461293 0.541056957 27.2650656 2.30512348 31 0 30.5611684 4.3615816 30.9619561 7.83494642"></polygon>
            </g>
            <rect id="bg" fill="#FFFFFF" x="30" y="0" width="216" height="32"></rect>
            <path d="M246,80 L30,80 L30,0 L246,0 L246,80 L246,80 Z M31.305975,78.6971179 L244.694025,78.6971179 L244.694025,1.30288208 L31.305975,1.30288208 L31.305975,78.6971179 Z" id="Shape" fill="#FFFFFF"></path>
            <g id="Group" transform="translate(53.000000, 9.000000)" fill="#222222">
                <path d="M0,11.8710141 L0,0.322680375 L3.69790273,0.322680375 C4.41002082,0.322680375 5.02381116,0.392134306 5.5388406,0.53190495 C6.05387005,0.671675594 6.47750234,0.870115397 6.80930432,1.12808714 C7.1411063,1.38649028 7.38670907,1.70183701 7.54567947,2.07499011 C7.70464987,2.44857461 7.78435165,2.86874933 7.78435165,3.33637704 C7.78435165,3.62109501 7.73973598,3.89502822 7.6509378,4.15817665 C7.56213962,4.42132509 7.42699312,4.66592372 7.24636463,4.89154114 C7.06573613,5.11715857 6.83919248,5.31861811 6.56673368,5.49591976 C6.29427487,5.67279002 5.97460143,5.81816875 5.60771334,5.93119316 C6.45454476,6.09771003 7.09389165,6.40140921 7.52575402,6.8414279 C7.95718322,7.28187799 8.17333099,7.86209872 8.17333099,8.58209009 C8.17333099,9.07128734 8.08280016,9.51691412 7.90217167,9.92026459 C7.72154318,10.3231837 7.45731445,10.6695905 7.10905232,10.9594852 C6.76122335,11.2498113 6.33499209,11.4741345 5.83079169,11.6328864 C5.32615813,11.7912068 4.75048603,11.8705827 4.10290906,11.8705827 L0,11.8705827 L0,11.8710141 Z M1.56977855,5.49678254 L3.64159169,5.49678254 C4.08384994,5.49678254 4.46676502,5.44846676 4.79033692,5.35140382 C5.11434199,5.25477226 5.38246918,5.1206097 5.59558481,4.94848474 C5.80870044,4.77679117 5.96637135,4.56842938 6.06903071,4.32383075 C6.17125691,4.07966352 6.22280317,3.81220117 6.22280317,3.5223065 C6.22280317,2.84545422 6.01791761,2.34849193 5.60771334,2.03141964 C5.19794223,1.71477873 4.5611943,1.5555955 3.69790273,1.5555955 L1.56977855,1.5555955 L1.56977855,5.49678254 L1.56977855,5.49678254 Z M1.56977855,6.60847683 L1.56977855,10.6299026 L4.078652,10.6299026 C4.52610819,10.6299026 4.91075592,10.5789985 5.23172885,10.4771902 C5.55270178,10.3749506 5.81736368,10.2312974 6.0248482,10.0457993 C6.23233273,9.86030125 6.3848057,9.64029191 6.48183396,9.3853399 C6.57929537,9.1299565 6.62737634,8.84912104 6.62737634,8.54326491 C6.62737634,7.94665133 6.41556019,7.4751411 5.99236106,7.12873423 C5.56872877,6.78232735 4.92808239,6.60890822 4.07042193,6.60890822 L1.56977855,6.60890822 L1.56977855,6.60847683 Z" id="Shape"></path>
                <path d="M13.4890932,3.57838732 C13.9798656,3.57838732 14.4329529,3.65992019 14.8483551,3.82384873 C15.2637573,3.98777726 15.6224154,4.22417946 15.9247623,4.53348672 C16.2266761,4.84236258 16.4627494,5.22371212 16.6325488,5.67753532 C16.8027814,6.13178991 16.887248,6.64859618 16.887248,7.22881691 C16.887248,7.45443434 16.8629909,7.60498975 16.8144768,7.68048316 C16.7659627,7.75554517 16.6741323,7.79307618 16.539419,7.79307618 L11.0859113,7.79307618 C11.0967403,8.30901966 11.1669125,8.75766618 11.2959948,9.13901571 C11.4255102,9.52079664 11.6035397,9.83873171 11.8300833,10.0941151 C12.056627,10.3494985 12.3264868,10.5401733 12.6392297,10.6661394 C12.9519725,10.7925369 13.3028336,10.85552 13.6913798,10.85552 C14.0526368,10.85552 14.3645133,10.8136751 14.6261431,10.7304167 C14.8877729,10.6475896 15.113017,10.5574289 15.3018756,10.460366 C15.4907342,10.3637344 15.6484051,10.2735737 15.7753215,10.1907467 C15.9018048,10.1074882 16.0109615,10.0656433 16.1027919,10.0656433 C16.2214782,10.0656433 16.3133085,10.1113707 16.3778496,10.2023942 L16.7824228,10.7265341 C16.6043933,10.9413668 16.3912776,11.128159 16.1430759,11.2864795 C15.8948742,11.4447999 15.6289128,11.5755114 15.3460581,11.6773196 C15.0632034,11.7791279 14.7699528,11.8559154 14.468039,11.9068196 C14.1656921,11.9577237 13.8663772,11.9836071 13.5696613,11.9836071 C13.0030856,11.9836071 12.4811256,11.8878384 12.0037812,11.697595 C11.5264369,11.5069202 11.1136336,11.2273789 10.7658047,10.8594025 C10.4179757,10.4914261 10.1468164,10.0363087 9.95275988,9.49361901 C9.75870337,8.95092929 9.66167511,8.32800086 9.66167511,7.62397095 C9.66167511,7.054535 9.74917381,6.52263005 9.92460436,6.0282561 C10.0996017,5.53388216 10.3521351,5.10551102 10.6813381,4.74314268 C11.010108,4.38034296 11.4125153,4.09562498 11.8868275,3.88898875 C12.3611398,3.68235252 12.8956615,3.57838732 13.4890932,3.57838732 Z M13.5215804,4.63443218 C12.8254893,4.63443218 12.2779727,4.83459755 11.8790306,5.23492828 C11.4796554,5.63525901 11.2314537,6.19002768 11.1344254,6.89880289 L15.5929604,6.89880289 C15.5929604,6.56620052 15.5470452,6.26077578 15.455648,5.98425423 C15.3638177,5.70730129 15.2291044,5.46874214 15.0510749,5.26685121 C14.8730454,5.06539167 14.6555981,4.90965956 14.3995995,4.79965489 C14.1431676,4.68921882 13.8503502,4.63443218 13.5215804,4.63443218 Z" id="Shape"></path>
                <path d="M23.4175961,5.05288133 C23.3530549,5.17108243 23.2529945,5.23018298 23.1182812,5.23018298 C23.0372799,5.23018298 22.9458828,5.2008484 22.8432234,5.14174785 C22.7405641,5.0826473 22.6153803,5.0166445 22.4668058,4.94417083 C22.3182313,4.87169716 22.1419344,4.80483158 21.9366157,4.74271129 C21.731297,4.6810224 21.4887263,4.64996225 21.2080374,4.64996225 C20.9654668,4.64996225 20.7471532,4.6810224 20.5526636,4.74271129 C20.3586071,4.80483158 20.1927061,4.88938419 20.0549606,4.99680052 C19.9176483,5.10421685 19.81239,5.22888881 19.7391856,5.3712478 C19.6664144,5.51360679 19.6300288,5.66804472 19.6300288,5.8345616 C19.6300288,6.04378617 19.6906715,6.21893087 19.8119568,6.35827012 C19.9332421,6.49804077 20.093512,6.61883021 20.2931996,6.72106985 C20.4924541,6.82330949 20.7194309,6.91303879 20.9728306,6.99112054 C21.2262302,7.06920229 21.4865605,7.15246073 21.7538214,7.24089586 C22.0206491,7.32976238 22.2809794,7.4276881 22.5348122,7.53510443 C22.7882119,7.64295215 23.0147555,7.77711471 23.2144431,7.9384549 C23.4141308,8.0993637 23.5748338,8.29694072 23.6961191,8.53075457 C23.8174044,8.76456843 23.8780471,9.0449725 23.8780471,9.37282956 C23.8780471,9.74900241 23.8104739,10.0971348 23.6757605,10.4163641 C23.540614,10.7360247 23.3413596,11.0129777 23.0771308,11.2463601 C22.8129021,11.480174 22.4893302,11.6643779 22.105982,11.7985405 C21.7230669,11.932703 21.2808086,12 20.7792072,12 C20.2074336,12 19.689372,11.907251 19.2254556,11.7217529 C18.7615393,11.5362548 18.3677952,11.2989898 18.0437901,11.0086638 L18.3838222,10.460366 C18.4271384,10.390912 18.4782515,10.3369882 18.5375946,10.2994572 C18.5969378,10.2619262 18.6749069,10.242945 18.7723684,10.242945 C18.8698298,10.242945 18.972056,10.280476 19.0799133,10.3559694 C19.1877706,10.4310314 19.3185854,10.5142898 19.4723579,10.6057447 C19.6261304,10.6971996 19.81239,10.7800266 20.0307035,10.85552 C20.2490171,10.930582 20.5227754,10.9685444 20.8519784,10.9685444 C21.1322341,10.9685444 21.3778369,10.9318762 21.5883536,10.8594025 C21.7988702,10.7869289 21.9743008,10.6890031 22.114212,10.5651939 C22.2545565,10.4418162 22.3580822,10.2994572 22.4256554,10.138117 C22.4932287,9.97720818 22.5265821,9.80551461 22.5265821,9.62260488 C22.5265821,9.39698745 22.4659395,9.2101952 22.3446541,9.06222813 C22.2233688,8.91469245 22.0626658,8.78829493 21.8629782,8.68346694 C21.6632906,8.57907035 21.4354474,8.48761549 21.1790156,8.40953374 C20.9230169,8.33145199 20.6613872,8.24991911 20.3941263,8.16364094 C20.1272986,8.07822555 19.8652357,7.97986843 19.609237,7.86943236 C19.3528052,7.75942769 19.1249621,7.62138261 18.9252745,7.45443434 C18.7255869,7.28791746 18.565317,7.0825754 18.4440317,6.83797678 C18.3227463,6.59337815 18.2621037,6.29658123 18.2621037,5.94758601 C18.2621037,5.63569041 18.3266448,5.33630514 18.4561602,5.04899881 C18.5856756,4.76169249 18.7745342,4.50889744 19.0227359,4.29147644 C19.2709376,4.07362404 19.5758836,3.9006363 19.9371406,3.77165043 C20.2983976,3.64266456 20.7112008,3.57838732 21.1751171,3.57838732 C21.7144037,3.57838732 22.1986786,3.66293993 22.627942,3.83204515 C23.0567722,4.00158177 23.4275588,4.23410145 23.7403016,4.52917281 L23.4175961,5.05288133 Z" id="Path"></path>
                <path d="M28.23219,12 C27.5850462,12 27.0873433,11.82011 26.7395143,11.4598986 C26.3912522,11.1001186 26.2175543,10.5815868 26.2175543,9.90473451 L26.2175543,4.907934 L25.2303784,4.907934 C25.1441792,4.907934 25.071408,4.88248194 25.0120648,4.83114642 C24.9527217,4.7802423 24.9228335,4.70086638 24.9228335,4.59345005 L24.9228335,4.02142575 L26.2660684,3.85188913 L26.5978704,1.32954668 C26.6086994,1.2484452 26.6433524,1.18287378 26.7031287,1.13196966 C26.762905,1.08106554 26.8382752,1.05518208 26.9296724,1.05518208 L27.6578174,1.05518208 L27.6578174,3.86785059 L30.0042552,3.86785059 L30.0042552,4.90750261 L27.6578174,4.90750261 L27.6578174,9.80724018 C27.6578174,10.1510587 27.7414177,10.4064421 27.9086181,10.5725276 C28.0758186,10.7394759 28.2915332,10.8223029 28.5561951,10.8223029 C28.7069354,10.8223029 28.8377503,10.8020275 28.9486397,10.7619082 C29.059096,10.7213574 29.1552579,10.6773556 29.2358261,10.6286084 C29.3168273,10.5802926 29.3857001,10.5358594 29.4424443,10.4953086 C29.4991885,10.4551893 29.5490021,10.4349139 29.5923183,10.4349139 C29.6676884,10.4349139 29.7352617,10.4802099 29.7946048,10.5716648 L30.2156382,11.2567135 C29.9674364,11.487939 29.6681216,11.6691232 29.3172605,11.8006974 C28.9659662,11.9339972 28.6042761,12 28.23219,12 Z" id="Path"></path>
                <path d="M35.134191,11.8710141 L35.134191,0.322680375 L38.8320937,0.322680375 C39.5442118,0.322680375 40.1580022,0.392134306 40.6730316,0.53190495 C41.188061,0.671675594 41.6116933,0.870115397 41.9434953,1.12808714 C42.2752973,1.38649028 42.5209001,1.70183701 42.6798705,2.07499011 C42.8388409,2.44857461 42.9185426,2.86874933 42.9185426,3.33637704 C42.9185426,3.62109501 42.873927,3.89502822 42.7851288,4.15817665 C42.6963306,4.42132509 42.5611841,4.66592372 42.3805556,4.89154114 C42.1999271,5.11715857 41.9733835,5.31861811 41.7009247,5.49591976 C41.4284659,5.67279002 41.1087924,5.81816875 40.7419043,5.93119316 C41.5887358,6.09771003 42.2280826,6.40140921 42.659945,6.8414279 C43.0913742,7.28187799 43.307522,7.86209872 43.307522,8.58209009 C43.307522,9.07128734 43.2169912,9.51691412 43.0363627,9.92026459 C42.8557342,10.3231837 42.5915054,10.6695905 42.2432433,10.9594852 C41.8954143,11.2498113 41.4691831,11.4741345 40.9649827,11.6328864 C40.4603491,11.7912068 39.884677,11.8705827 39.2371001,11.8705827 L35.134191,11.8705827 L35.134191,11.8710141 Z M36.7039695,5.49678254 L38.7757827,5.49678254 C39.2180409,5.49678254 39.600956,5.44846676 39.9245279,5.35140382 C40.248533,5.25477226 40.5166602,5.1206097 40.7297758,4.94848474 C40.9428914,4.77679117 41.1005623,4.56842938 41.2032217,4.32383075 C41.3054479,4.07966352 41.3569942,3.81220117 41.3569942,3.5223065 C41.3569942,2.84545422 41.1521086,2.34849193 40.7419043,2.03141964 C40.3321332,1.71477873 39.6953853,1.5555955 38.8320937,1.5555955 L36.7039695,1.5555955 L36.7039695,5.49678254 L36.7039695,5.49678254 Z M36.7039695,6.60847683 L36.7039695,10.6299026 L39.212843,10.6299026 C39.6602992,10.6299026 40.0449469,10.5789985 40.3659198,10.4771902 C40.6868928,10.3749506 40.9515547,10.2312974 41.1590392,10.0457993 C41.3665237,9.86030125 41.5189967,9.64029191 41.616025,9.3853399 C41.7134864,9.1299565 41.7615673,8.84912104 41.7615673,8.54326491 C41.7615673,7.94665133 41.5497512,7.4751411 41.1265521,7.12873423 C40.7029198,6.78232735 40.0622734,6.60890822 39.2046129,6.60890822 L36.7039695,6.60890822 L36.7039695,6.60847683 Z" id="Shape"></path>
                <path d="M48.6237174,3.57838732 C49.1144898,3.57838732 49.5675771,3.65992019 49.9829793,3.82384873 C50.3983815,3.98777726 50.7570395,4.22417946 51.0593865,4.53348672 C51.3613003,4.84236258 51.5973735,5.22371212 51.767173,5.67753532 C51.9374056,6.13178991 52.0218721,6.64859618 52.0218721,7.22881691 C52.0218721,7.45443434 51.9976151,7.60498975 51.9491009,7.68048316 C51.9005868,7.75554517 51.8087565,7.79307618 51.6740432,7.79307618 L46.2201023,7.79307618 C46.2309313,8.30901966 46.3011035,8.75766618 46.4301858,9.13901571 C46.5597012,9.52079664 46.7377307,9.83873171 46.9642743,10.0941151 C47.190818,10.3494985 47.4606778,10.5401733 47.7734207,10.6661394 C48.0861635,10.7925369 48.4370246,10.85552 48.8255708,10.85552 C49.1868278,10.85552 49.4987043,10.8136751 49.7603341,10.7304167 C50.0219639,10.6475896 50.247208,10.5574289 50.4360666,10.460366 C50.6249252,10.3637344 50.7825961,10.2735737 50.9095125,10.1907467 C51.0359957,10.1074882 51.1451525,10.0656433 51.2369828,10.0656433 C51.3556692,10.0656433 51.4474995,10.1113707 51.5120406,10.2023942 L51.9166138,10.7265341 C51.7385843,10.9413668 51.5254686,11.128159 51.2772669,11.2864795 C51.0290652,11.4447999 50.7631038,11.5755114 50.4802491,11.6773196 C50.1973944,11.7791279 49.9041438,11.8559154 49.60223,11.9068196 C49.299883,11.9577237 49.0005682,11.9836071 48.7038523,11.9836071 C48.1372766,11.9836071 47.6153166,11.8878384 47.1379722,11.697595 C46.6606279,11.5069202 46.2478246,11.2273789 45.8999957,10.8594025 C45.5521667,10.4914261 45.2810074,10.0363087 45.0869509,9.49361901 C44.8928944,8.95092929 44.7958661,8.32800086 44.7958661,7.62397095 C44.7958661,7.054535 44.8833648,6.52263005 45.0587954,6.0282561 C45.2337927,5.53388216 45.4863261,5.10551102 45.8155291,4.74314268 C46.144299,4.38034296 46.5467063,4.09562498 47.0210185,3.88898875 C47.4953308,3.68235252 48.0298525,3.57838732 48.6237174,3.57838732 Z M48.6557714,4.63443218 C47.9596803,4.63443218 47.4121637,4.83459755 47.0132216,5.23492828 C46.6138464,5.63525901 46.3656447,6.19002768 46.2686164,6.89880289 L50.7271513,6.89880289 C50.7271513,6.56620052 50.6812362,6.26077578 50.589839,5.98425423 C50.4980087,5.70730129 50.3632954,5.46874214 50.1852659,5.26685121 C50.0072364,5.06539167 49.7897891,4.90965956 49.5337904,4.79965489 C49.2773586,4.68921882 48.9849744,4.63443218 48.6557714,4.63443218 Z" id="Shape"></path>
                <path d="M57.1764982,3.57838732 C57.7751278,3.57838732 58.316147,3.67760722 58.7991225,3.87647841 C59.2816648,4.07534961 59.691869,4.35704785 60.028869,4.72243592 C60.3658689,5.08825538 60.6248997,5.52956825 60.8055282,6.04810008 C60.9861567,6.56663192 61.0766875,7.14555847 61.0766875,7.78444836 C61.0766875,8.42937772 60.9861567,9.00959845 60.8055282,9.52511054 C60.6248997,10.041054 60.3658689,10.4815041 60.028869,10.8468922 C59.691869,11.2122803 59.2816648,11.4926843 58.7991225,11.6889672 C58.316147,11.8848186 57.775561,11.9831758 57.1764982,11.9831758 C56.5774353,11.9831758 56.0368493,11.8848186 55.5538739,11.6889672 C55.0708984,11.4926843 54.6598278,11.2122803 54.3197958,10.8468922 C53.9797637,10.4810727 53.7181339,10.041054 53.5349065,9.52511054 C53.351679,9.00959845 53.2598487,8.42937772 53.2598487,7.78444836 C53.2598487,7.14555847 53.3512458,6.56663192 53.5349065,6.04810008 C53.7185671,5.52956825 53.9801969,5.08782399 54.3197958,4.72243592 C54.6593946,4.35704785 55.0708984,4.07534961 55.5538739,3.87647841 C56.0364162,3.67803861 56.5774353,3.57838732 57.1764982,3.57838732 Z M57.1764982,10.8637164 C57.9856445,10.8637164 58.5899053,10.5936657 58.9892805,10.0535644 C59.3882226,9.51389438 59.5879102,8.76025452 59.5879102,7.79307618 C59.5879102,6.82072114 59.3882226,6.06319876 58.9892805,5.52050904 C58.5899053,4.97781932 57.9860777,4.70647446 57.1764982,4.70647446 C56.7662939,4.70647446 56.4102349,4.77635978 56.108321,4.91569903 C55.8059741,5.05546968 55.5538739,5.25692922 55.3515873,5.52007765 C55.1493007,5.78322608 54.9981272,6.10676924 54.8985,6.49113851 C54.7988728,6.87550778 54.748626,7.30905561 54.748626,7.79264479 C54.748626,8.27623396 54.7984396,8.70891901 54.8985,9.09026854 C54.9981272,9.47204947 55.1493007,9.79300428 55.3515873,10.053133 C55.5538739,10.3136931 55.8059741,10.5138584 56.108321,10.6536291 C56.4102349,10.7938311 56.7662939,10.8637164 57.1764982,10.8637164 Z" id="Shape"></path>
                <path d="M66.1745693,3.57838732 C66.773199,3.57838732 67.3142182,3.67760722 67.7971936,3.87647841 C68.2797359,4.07534961 68.6899402,4.35704785 69.0269401,4.72243592 C69.36394,5.08825538 69.6229708,5.52956825 69.8035993,6.04810008 C69.9842278,6.56663192 70.0747586,7.14555847 70.0747586,7.78444836 C70.0747586,8.42937772 69.9842278,9.00959845 69.8035993,9.52511054 C69.6229708,10.041054 69.36394,10.4815041 69.0269401,10.8468922 C68.6899402,11.2122803 68.2797359,11.4926843 67.7971936,11.6889672 C67.3142182,11.8848186 66.7736322,11.9831758 66.1745693,11.9831758 C65.5755065,11.9831758 65.0349205,11.8848186 64.551945,11.6889672 C64.0689696,11.4926843 63.657899,11.2122803 63.3178669,10.8468922 C62.9778349,10.4810727 62.7162051,10.041054 62.5329776,9.52511054 C62.3497502,9.00959845 62.2579199,8.42937772 62.2579199,7.78444836 C62.2579199,7.14555847 62.349317,6.56663192 62.5329776,6.04810008 C62.7166383,5.52956825 62.978268,5.08782399 63.3178669,4.72243592 C63.6574658,4.35704785 64.0689696,4.07534961 64.551945,3.87647841 C65.0349205,3.67803861 65.5759396,3.57838732 66.1745693,3.57838732 Z M66.1745693,10.8637164 C66.9837157,10.8637164 67.5879764,10.5936657 67.9873517,10.0535644 C68.3862937,9.51389438 68.5859814,8.76025452 68.5859814,7.79307618 C68.5859814,6.82072114 68.3862937,6.06319876 67.9873517,5.52050904 C67.5879764,4.97781932 66.9841488,4.70647446 66.1745693,4.70647446 C65.764365,4.70647446 65.408306,4.77635978 65.1063922,4.91569903 C64.8040452,5.05546968 64.551945,5.25692922 64.3496584,5.52007765 C64.1473719,5.78322608 63.9961984,6.10676924 63.8965711,6.49113851 C63.7969439,6.87550778 63.7466971,7.30905561 63.7466971,7.79264479 C63.7466971,8.27623396 63.7965108,8.70891901 63.8965711,9.09026854 C63.9961984,9.47204947 64.1473719,9.79300428 64.3496584,10.053133 C64.551945,10.3136931 64.8040452,10.5138584 65.1063922,10.6536291 C65.4087392,10.7938311 65.764365,10.8637164 66.1745693,10.8637164 Z" id="Shape"></path>
                <path d="M71.8550539,11.8710141 L71.8550539,3.70737319 L72.6802272,3.70737319 C72.8365986,3.70737319 72.9444559,3.73670777 73.0042322,3.79580832 C73.0635754,3.85534026 73.1038595,3.95714851 73.1255176,4.10209584 L73.222979,5.37556171 C73.5032347,4.80612575 73.8501973,4.36136176 74.2625674,4.04170112 C74.6749375,3.72204048 75.1592125,3.56242585 75.7149591,3.56242585 C75.9415028,3.56242585 76.1468215,3.58787792 76.3300489,3.63878204 C76.5132764,3.69011755 76.6830759,3.76086566 76.8398804,3.85232052 L76.6536209,4.92389546 C76.6159358,5.05848941 76.5323355,5.12578639 76.4028201,5.12578639 C76.32745,5.12578639 76.2113626,5.09990294 76.0549912,5.04899881 C75.8986197,4.99809469 75.679873,4.97221124 75.3996173,4.97221124 C74.8980159,4.97221124 74.4787152,5.11758996 74.1412821,5.40748463 C73.8042822,5.69781069 73.5222938,6.11927958 73.2957502,6.67318546 L73.2957502,11.8710141 L71.8550539,11.8710141 L71.8550539,11.8710141 Z" id="Path"></path>
                <path d="M84.1464546,11.8710141 C83.941569,11.8710141 83.8120536,11.7717942 83.7583416,11.572923 L83.6288262,10.5815868 C83.2779651,11.0060754 82.8777235,11.3460114 82.4272352,11.6009634 C81.9767469,11.8563468 81.4604179,11.9840385 80.8778152,11.9840385 C80.4087009,11.9840385 79.9824697,11.8938778 79.5991214,11.7139878 C79.2157732,11.5340979 78.8896023,11.2696552 78.6201757,10.9202286 C78.3503158,10.570802 78.1423981,10.13596 77.9972889,9.61483985 C77.8517465,9.09371967 77.7789753,8.49451774 77.7789753,7.81766546 C77.7789753,7.21587518 77.8599766,6.65592983 78.021546,6.1369666 C78.1835485,5.61886616 78.4170228,5.16892548 78.7215355,4.78714455 C79.0260483,4.40579502 79.397268,4.10640975 79.8338952,3.88855736 C80.2709555,3.67113636 80.767359,3.56242585 81.3231056,3.56242585 C81.824707,3.56242585 82.2535373,3.64654708 82.6095963,3.81608369 C82.9656554,3.9856203 83.2840293,4.22288529 83.5647182,4.52917281 L83.5647182,0 L85.0049814,0 L85.0049814,11.8710141 L84.1464546,11.8710141 Z M81.3547264,10.8231657 C81.8238407,10.8231657 82.2353445,10.7157494 82.5888045,10.5009167 C82.9418315,10.286084 83.267136,9.98238487 83.5638519,9.59025057 L83.5638519,5.64172988 C83.2996231,5.28712658 83.0094047,5.03907682 82.6940629,4.89585505 C82.3782879,4.75392745 82.0291594,4.68274796 81.6462444,4.68274796 C80.879981,4.68274796 80.2921804,4.95409282 79.8824093,5.49678254 C79.472205,6.03947227 79.2673195,6.81295611 79.2673195,7.81766546 C79.2673195,8.34913902 79.3132346,8.80468778 79.4050649,9.18344897 C79.4964621,9.56221016 79.6316086,9.87410576 79.8096381,10.118273 C79.9876676,10.3628716 80.2059812,10.5414674 80.465012,10.6540605 C80.7236096,10.7666535 81.0203255,10.8231657 81.3547264,10.8231657 Z" id="Shape"></path>
                <path d="M90.6685726,3.57838732 C91.159345,3.57838732 91.6124323,3.65992019 92.0278345,3.82384873 C92.4432367,3.98777726 92.8018947,4.22417946 93.1042417,4.53348672 C93.4061555,4.84236258 93.6422287,5.22371212 93.8120281,5.67753532 C93.9822607,6.13178991 94.0671605,6.64859618 94.0671605,7.22881691 C94.0671605,7.45443434 94.0429034,7.60498975 93.9943893,7.68048316 C93.9458752,7.75554517 93.8540448,7.79307618 93.7188983,7.79307618 L88.2653906,7.79307618 C88.2757865,8.30901966 88.3459587,8.75766618 88.475041,9.13901571 C88.6049895,9.52079664 88.783019,9.83873171 89.0095627,10.0941151 C89.2356732,10.3494985 89.505533,10.5401733 89.8182759,10.6661394 C90.1314519,10.7925369 90.4818798,10.85552 90.870426,10.85552 C91.2321161,10.85552 91.5435595,10.8136751 91.8047561,10.7304167 C92.0663859,10.6475896 92.2920632,10.5574289 92.4809218,10.460366 C92.6697803,10.3637344 92.8274513,10.2735737 92.9543677,10.1907467 C93.0808509,10.1074882 93.1900077,10.0656433 93.2822712,10.0656433 C93.4005244,10.0656433 93.4923547,10.1113707 93.557329,10.2023942 L93.9619021,10.7265341 C93.7843058,10.9413668 93.5711902,11.128159 93.3229884,11.2864795 C93.0743535,11.4447999 92.8083921,11.5755114 92.5255374,11.6773196 C92.2426827,11.7791279 91.9498653,11.8559154 91.6479515,11.9068196 C91.3456046,11.9577237 91.0462897,11.9836071 90.7495738,11.9836071 C90.1829981,11.9836071 89.6610381,11.8878384 89.1836937,11.697595 C88.7063494,11.5069202 88.2935461,11.2273789 87.9461503,10.8594025 C87.5978882,10.4914261 87.3267289,10.0363087 87.1326724,9.49361901 C86.9386159,8.95092929 86.8411545,8.32800086 86.8411545,7.62397095 C86.8411545,7.054535 86.9290863,6.52263005 87.1040837,6.0282561 C87.2790811,5.53388216 87.5316144,5.10551102 87.8608175,4.74314268 C88.1895873,4.38034296 88.5919947,4.09562498 89.0663069,3.88898875 C89.5406191,3.68235252 90.0751408,3.57838732 90.6685726,3.57838732 Z M90.7014929,4.63443218 C90.0054018,4.63443218 89.4578852,4.83459755 89.05851,5.23492828 C88.6591347,5.63525901 88.4113662,6.19002768 88.3139048,6.89880289 L92.7724397,6.89880289 C92.7724397,6.56620052 92.7269577,6.26077578 92.6355605,5.98425423 C92.5432971,5.70730129 92.4090169,5.46874214 92.2305542,5.26685121 C92.0525247,5.06539167 91.8350774,4.90965956 91.5790788,4.79965489 C91.322647,4.68921882 91.0298296,4.63443218 90.7014929,4.63443218 Z" id="Shape"></path>
                <path d="M99.1490153,3.57838732 C99.6397877,3.57838732 100.093308,3.65992019 100.50871,3.82384873 C100.924113,3.98777726 101.282771,4.22417946 101.584684,4.53348672 C101.886598,4.84236258 102.122671,5.22371212 102.292904,5.67753532 C102.463137,6.13135852 102.547603,6.64859618 102.547603,7.22881691 C102.547603,7.45443434 102.523346,7.60498975 102.474832,7.68048316 C102.426318,7.75554517 102.334488,7.79307618 102.199774,7.79307618 L96.7454002,7.79307618 C96.7562292,8.30901966 96.8268346,8.75766618 96.9559169,9.13901571 C97.0854323,9.52079664 97.2630286,9.83873171 97.4895723,10.0941151 C97.7161159,10.3494985 97.9859757,10.5401733 98.2987186,10.6661394 C98.6114615,10.7925369 98.9623226,10.85552 99.3508687,10.85552 C99.7121257,10.85552 100.024002,10.8136751 100.285632,10.7304167 C100.547262,10.6475896 100.772073,10.5574289 100.961365,10.460366 C101.150223,10.3637344 101.307894,10.2735737 101.43481,10.1907467 C101.561727,10.1074882 101.670884,10.0656433 101.762281,10.0656433 C101.880967,10.0656433 101.972797,10.1113707 102.037772,10.2023942 L102.442778,10.7265341 C102.264315,10.9413668 102.0512,11.128159 101.802998,11.2864795 C101.554796,11.4447999 101.289268,11.5755114 101.00598,11.6773196 C100.722692,11.7791279 100.429875,11.8559154 100.127961,11.9068196 C99.8260473,11.9577237 99.5262993,11.9836071 99.2300166,11.9836071 C98.6634409,11.9836071 98.1414809,11.8878384 97.6645697,11.697595 C97.1867921,11.5069202 96.774422,11.2273789 96.4261599,10.8594025 C96.078331,10.4914261 95.8076048,10.0363087 95.6131151,9.49361901 C95.4190586,8.95092929 95.3220304,8.32800086 95.3220304,7.62397095 C95.3220304,7.054535 95.4090959,6.52263005 95.5849596,6.0282561 C95.759957,5.53388216 96.0120572,5.10551102 96.3412602,4.74314268 C96.6704632,4.38077435 97.0724374,4.09562498 97.5467496,3.88898875 C98.0210619,3.68235252 98.5551504,3.57838732 99.1490153,3.57838732 Z M99.1810693,4.63443218 C98.4854114,4.63443218 97.9374616,4.83459755 97.5385196,5.23492828 C97.1391443,5.63525901 96.8909426,6.19002768 96.7939143,6.89880289 L101.252882,6.89880289 C101.252882,6.56620052 101.206967,6.26077578 101.115137,5.98425423 C101.02374,5.70730129 100.888593,5.46874214 100.710564,5.26685121 C100.532534,5.06539167 100.31552,4.90965956 100.059088,4.79965489 C99.8026566,4.68965021 99.5102723,4.63443218 99.1810693,4.63443218 Z" id="Shape"></path>
                <polygon id="Path" points="105.986475 0 105.986475 11.8710141 104.546212 11.8710141 104.546212 0"></polygon>
                <path d="M114.296685,11.8710141 C114.091367,11.8710141 113.962284,11.7717942 113.908572,11.572923 L113.779057,10.5815868 C113.427763,11.0060754 113.027954,11.3460114 112.577033,11.6009634 C112.126978,11.8563468 111.610215,11.9840385 111.028046,11.9840385 C110.558499,11.9840385 110.132267,11.8938778 109.749352,11.7139878 C109.366437,11.5340979 109.039833,11.2696552 108.769973,10.9202286 C108.500113,10.570802 108.292629,10.13596 108.147086,9.61483985 C108.001111,9.09371967 107.92834,8.49451774 107.92834,7.81766546 C107.92834,7.21587518 108.009341,6.65592983 108.17091,6.1369666 C108.333346,5.61886616 108.566387,5.16892548 108.871333,4.78714455 C109.175846,4.40579502 109.546632,4.10640975 109.983693,3.88855736 C110.42032,3.67113636 110.916723,3.56242585 111.472903,3.56242585 C111.974505,3.56242585 112.403335,3.64654708 112.759394,3.81608369 C113.115453,3.9856203 113.433827,4.22288529 113.714083,4.52917281 L113.714083,0 L115.154779,0 L115.154779,11.8710141 L114.296685,11.8710141 Z M111.504957,10.8231657 C111.974505,10.8231657 112.385575,10.7157494 112.739468,10.5009167 C113.092062,10.286084 113.417367,9.98238487 113.714083,9.59025057 L113.714083,5.64172988 C113.450287,5.28712658 113.160069,5.03907682 112.844294,4.89585505 C112.528519,4.75392745 112.17939,4.68274796 111.796042,4.68274796 C111.030212,4.68274796 110.442411,4.95409282 110.032207,5.49678254 C109.622436,6.03947227 109.417117,6.81295611 109.417117,7.81766546 C109.417117,8.34913902 109.463032,8.80468778 109.554862,9.18344897 C109.64626,9.56221016 109.781406,9.87410576 109.959436,10.118273 C110.137465,10.3628716 110.356212,10.5414674 110.615243,10.6540605 C110.87384,10.7666535 111.170556,10.8231657 111.504957,10.8231657 Z" id="Shape"></path>
                <path d="M120.923628,11.8710141 L120.923628,0.322680375 L124.621531,0.322680375 C125.334082,0.322680375 125.94744,0.392134306 126.462469,0.53190495 C126.977499,0.671675594 127.401131,0.870115397 127.733366,1.12808714 C128.065168,1.38649028 128.310338,1.70183701 128.469308,2.07499011 C128.628278,2.44857461 128.70798,2.86874933 128.70798,3.33637704 C128.70798,3.62109501 128.663798,3.89502822 128.574566,4.15817665 C128.485335,4.42132509 128.350622,4.66592372 128.16956,4.89154114 C127.988931,5.11715857 127.762821,5.31861811 127.490362,5.49591976 C127.217903,5.67279002 126.89823,5.81816875 126.530909,5.93119316 C127.37774,6.09771003 128.01752,6.40140921 128.448949,6.8414279 C128.880379,7.28187799 129.096526,7.86209872 129.096526,8.58209009 C129.096526,9.07128734 129.005995,9.51691412 128.825367,9.92026459 C128.644305,10.3231837 128.38051,10.6695905 128.032248,10.9594852 C127.683985,11.2498113 127.258187,11.4741345 126.753987,11.6328864 C126.249353,11.7912068 125.673681,11.8705827 125.026104,11.8705827 L120.923628,11.8705827 L120.923628,11.8710141 Z M122.493407,5.49678254 L124.564787,5.49678254 C125.007045,5.49678254 125.390393,5.44846676 125.713532,5.35140382 C126.037537,5.25477226 126.305664,5.1206097 126.51878,4.94848474 C126.731896,4.77635978 126.889133,4.56842938 126.992226,4.32383075 C127.094452,4.07966352 127.145565,3.81220117 127.145565,3.5223065 C127.145565,2.84545422 126.94068,2.34849193 126.530475,2.03141964 C126.121138,1.71477873 125.483956,1.5555955 124.621098,1.5555955 L122.492974,1.5555955 L122.492974,5.49678254 L122.493407,5.49678254 Z M122.493407,6.60847683 L122.493407,10.6299026 L125.00228,10.6299026 C125.449737,10.6299026 125.833951,10.5789985 126.154924,10.4771902 C126.475897,10.3749506 126.740559,10.2312974 126.948044,10.0457993 C127.155528,9.86030125 127.308001,9.64029191 127.405029,9.3853399 C127.502491,9.1299565 127.551005,8.84912104 127.551005,8.54326491 C127.551005,7.94665133 127.339189,7.4751411 126.91599,7.12873423 C126.491924,6.78232735 125.851711,6.60890822 124.993617,6.60890822 L122.493407,6.60890822 L122.493407,6.60847683 Z" id="Shape"></path>
                <path d="M132.414113,3.70737319 L132.414113,8.91296689 C132.414113,9.53115002 132.556623,10.0091311 132.84251,10.3477729 C133.128397,10.6859834 133.559826,10.85552 134.137231,10.85552 C134.557831,10.85552 134.954607,10.7563001 135.326693,10.5574289 C135.698779,10.3585577 136.04141,10.0816048 136.354586,9.72743286 L136.354586,3.70737319 L137.794416,3.70737319 L137.794416,11.8710141 L136.936756,11.8710141 C136.73187,11.8710141 136.602788,11.7717942 136.548643,11.572923 L136.435154,10.6946112 C136.079529,11.0867455 135.680153,11.402955 135.237895,11.6415142 C134.795637,11.8805047 134.288404,12 133.716197,12 C133.268308,12 132.873264,11.9262322 132.530633,11.7782651 C132.188002,11.630298 131.901249,11.4223676 131.669508,11.1536111 C131.437333,10.885286 131.263202,10.5600173 131.147548,10.1786677 C131.031027,9.7968868 130.973417,9.37541791 130.973417,8.91296689 L130.973417,3.70737319 L132.414113,3.70737319 Z" id="Path"></path>
                <path d="M140.166411,11.8710141 L140.166411,3.70737319 L140.991151,3.70737319 C141.147522,3.70737319 141.255813,3.73670777 141.315156,3.79580832 C141.374499,3.85534026 141.414783,3.95714851 141.436008,4.10209584 L141.533469,5.37556171 C141.814158,4.80612575 142.160255,4.36136176 142.573058,4.04170112 C142.985861,3.72204048 143.469703,3.56242585 144.025883,3.56242585 C144.252426,3.56242585 144.457312,3.58787792 144.640973,3.63878204 C144.824633,3.69011755 144.994433,3.76086566 145.151237,3.85232052 L144.964978,4.92389546 C144.926859,5.05848941 144.843259,5.12578639 144.713744,5.12578639 C144.638374,5.12578639 144.522719,5.09990294 144.365915,5.04899881 C144.20911,4.99809469 143.99123,4.97221124 143.710108,4.97221124 C143.208506,4.97221124 142.788772,5.11758996 142.452206,5.40748463 C142.114773,5.69781069 141.832784,6.11927958 141.606241,6.67318546 L141.606241,11.8710141 L140.166411,11.8710141 L140.166411,11.8710141 Z" id="Path"></path>
                <path d="M149.932911,3.57838732 C150.423683,3.57838732 150.877204,3.65992019 151.292606,3.82384873 C151.708008,3.98777726 152.066666,4.22417946 152.36858,4.53348672 C152.670494,4.84236258 152.906567,5.22371212 153.0768,5.67753532 C153.247032,6.13135852 153.331499,6.64859618 153.331499,7.22881691 C153.331499,7.45443434 153.307675,7.60498975 153.258728,7.68048316 C153.210647,7.75554517 153.118383,7.79307618 152.98367,7.79307618 L147.529296,7.79307618 C147.540125,8.30901966 147.61073,8.75766618 147.739812,9.13901571 C147.869328,9.52079664 148.04779,9.83873171 148.273468,10.0941151 C148.500011,10.3494985 148.769871,10.5401733 149.083047,10.6661394 C149.396223,10.7925369 149.746218,10.85552 150.134764,10.85552 C150.496021,10.85552 150.808331,10.8136751 151.069528,10.7304167 C151.331157,10.6475896 151.555968,10.5574289 151.745693,10.460366 C151.934552,10.3637344 152.09179,10.2735737 152.218706,10.1907467 C152.345622,10.1074882 152.454779,10.0656433 152.547043,10.0656433 C152.665296,10.0656433 152.756693,10.1113707 152.8221,10.2023942 L153.226674,10.7265341 C153.049077,10.9413668 152.835962,11.128159 152.586894,11.2864795 C152.339125,11.4447999 152.073164,11.5755114 151.789876,11.6773196 C151.506588,11.7791279 151.214637,11.8559154 150.911857,11.9068196 C150.609943,11.9577237 150.310195,11.9836071 150.014345,11.9836071 C149.447336,11.9836071 148.925376,11.8878384 148.448465,11.697595 C147.971121,11.5069202 147.558318,11.2273789 147.210922,10.8594025 C146.862227,10.4914261 146.5915,10.0363087 146.397011,9.49361901 C146.203387,8.95092929 146.105926,8.32800086 146.105926,7.62397095 C146.105926,7.054535 146.193858,6.52263005 146.368855,6.0282561 C146.543853,5.53388216 146.795953,5.10551102 147.125156,4.74314268 C147.454359,4.38077435 147.856333,4.09562498 148.330645,3.88898875 C148.804957,3.68235252 149.339912,3.57838732 149.932911,3.57838732 Z M149.964965,4.63443218 C149.26974,4.63443218 148.722223,4.83459755 148.322848,5.23492828 C147.923473,5.63525901 147.675704,6.19002768 147.578243,6.89880289 L152.036778,6.89880289 C152.036778,6.56620052 151.991296,6.26077578 151.899033,5.98425423 C151.807635,5.70730129 151.673355,5.46874214 151.494459,5.26685121 C151.316863,5.06539167 151.099416,4.90965956 150.842984,4.79965489 C150.586552,4.68965021 150.294168,4.63443218 149.964965,4.63443218 Z" id="Shape"></path>
                <path d="M161.188188,11.8710141 L160.549275,11.8710141 C160.40893,11.8710141 160.295442,11.8494446 160.209243,11.8067369 C160.123043,11.7640292 160.066299,11.6721429 160.03901,11.5328037 L159.877441,10.7748499 C159.661726,10.9685444 159.451209,11.1419635 159.246324,11.2946759 C159.040572,11.4478197 158.824857,11.5768056 158.59918,11.6812021 C158.372636,11.7860301 158.130499,11.865406 157.874933,11.9193299 C157.618502,11.9728224 157.333481,12 157.021171,12 C156.702364,12 156.404349,11.9551353 156.127125,11.8667002 C155.848602,11.7778337 155.607764,11.6441025 155.402879,11.4659381 C155.197127,11.2882051 155.033825,11.063019 154.912973,10.7908114 C154.791254,10.5186037 154.731045,10.1967861 154.731045,9.8249272 C154.731045,9.50138405 154.819843,9.18991983 154.997439,8.89096596 C155.175902,8.59201208 155.462655,8.32584391 155.859431,8.09418701 C156.256208,7.86253011 156.774702,7.67228673 157.417081,7.52388827 C158.059027,7.3759212 158.84435,7.30172197 159.772616,7.30172197 L159.772616,6.66110652 C159.772616,6.02307941 159.635736,5.54078441 159.364144,5.21379013 C159.090819,4.88636445 158.687978,4.72286731 158.154323,4.72286731 C157.803029,4.72286731 157.508045,4.76730057 157.267641,4.85616709 C157.027236,4.94460222 156.820184,5.04425351 156.644754,5.15425819 C156.46889,5.26426286 156.31815,5.36348276 156.191233,5.45191789 C156.064317,5.54078441 155.939133,5.58521767 155.814816,5.58521767 C155.718221,5.58521767 155.632888,5.55976561 155.560116,5.5084301 C155.487345,5.45752597 155.428868,5.39411151 155.385985,5.31948089 L155.126955,4.86004961 C155.580475,4.42477622 156.068649,4.09993889 156.592341,3.88510623 C157.115168,3.67027357 157.695604,3.56285725 158.331919,3.56285725 C158.790638,3.56285725 159.197377,3.63791926 159.553436,3.78804328 C159.909495,3.93816731 160.209243,4.14825466 160.451813,4.41657979 C160.694817,4.68533631 160.878045,5.01060503 161.001929,5.39195456 C161.126246,5.77373549 161.188188,6.19218464 161.188188,6.64902757 L161.188188,11.8710141 L161.188188,11.8710141 Z M157.449568,10.9927023 C157.703401,10.9927023 157.935143,10.9672502 158.14566,10.9159147 C158.356176,10.8650106 158.554131,10.7925369 158.740391,10.6984937 C158.92665,10.6044505 159.104247,10.4905633 159.274046,10.3559694 C159.443846,10.2213754 159.609747,10.068663 159.772182,9.89653809 L159.772182,8.21238811 C159.108145,8.21238811 158.544602,8.25466441 158.081118,8.33835424 C157.616769,8.42204407 157.239485,8.53118597 156.947534,8.6666427 C156.656449,8.80123665 156.445066,8.96128267 156.312952,9.14462379 C156.179971,9.3283963 156.114131,9.53373836 156.114131,9.76064996 C156.114131,9.97677679 156.14965,10.163569 156.219822,10.3201639 C156.289128,10.4767588 156.38399,10.6053133 156.502244,10.705396 C156.621363,10.8050473 156.761274,10.8783837 156.92371,10.9241112 C157.085713,10.9694072 157.261143,10.9927023 157.449568,10.9927023 Z" id="Shape"></path>
                <path d="M164.619697,3.70737319 L164.619697,8.91296689 C164.619697,9.53115002 164.76264,10.0091311 165.048527,10.3477729 C165.334414,10.6859834 165.765843,10.85552 166.342814,10.85552 C166.763415,10.85552 167.160191,10.7563001 167.532277,10.5574289 C167.904363,10.3585577 168.246994,10.0816048 168.56017,9.72743286 L168.56017,3.70737319 L170,3.70737319 L170,11.8710141 L169.14234,11.8710141 C168.937454,11.8710141 168.808372,11.7717942 168.754227,11.572923 L168.640738,10.6946112 C168.284679,11.0867455 167.88617,11.402955 167.443479,11.6415142 C167.000787,11.8800733 166.493555,12 165.922214,12 C165.473892,12 165.078848,11.9262322 164.736217,11.7782651 C164.393586,11.630298 164.106833,11.4223676 163.875091,11.1536111 C163.642483,10.885286 163.468786,10.5600173 163.353131,10.1786677 C163.237044,9.7968868 163.179,9.37541791 163.179,8.91296689 L163.179,3.70737319 L164.619697,3.70737319 Z" id="Path"></path>
            </g>
        </g>
    </g>
</svg>