<?xml version="1.0" encoding="UTF-8"?>
<svg width="60px" height="60px" viewBox="0 0 60 60" version="1.1" xmlns="http://www.w3.org/2000/svg" xmlns:xlink="http://www.w3.org/1999/xlink">
    <defs>
        <rect id="path-1" x="0" y="0" width="60" height="60"></rect>
    </defs>
    <g id="Gapstars" stroke="none" stroke-width="1" fill="none" fill-rule="evenodd">
        <g id="Digital-FC-2022---Iconen" transform="translate(-372.000000, -393.000000)">
            <g id="Rectangle-2" transform="translate(372.000000, 393.000000)">
                <mask id="mask-2" fill="white">
                    <use xlink:href="#path-1"></use>
                </mask>
                <use id="Rectangle" fill-opacity="0" fill="#D8D8D8" xlink:href="#path-1"></use>
                <g id="Group-7" mask="url(#mask-2)" fill="#FFFFFF">
                    <g transform="translate(0.000000, 10.000000)">
                        <path d="M2,38 L58,38 L58,2 L2,2 L2,38 Z M59,40 L1,40 C0.447,40 0,39.553 0,39 L0,1 C0,0.447 0.447,0 1,0 L59,0 C59.553,0 60,0.447 60,1 L60,39 C60,39.553 59.553,40 59,40 L59,40 Z" id="Fill-1"></path>
                        <path d="M59,29 L51,29 C50.447,29 50,28.553 50,28 L50,12 C50,11.447 50.447,11 51,11 L59,11 C59.553,11 60,11.447 60,12 C60,12.553 59.553,13 59,13 L52,13 L52,27 L59,27 C59.553,27 60,27.447 60,28 C60,28.553 59.553,29 59,29" id="Fill-3"></path>
                        <path d="M9,29 L1,29 C0.447,29 0,28.553 0,28 C0,27.447 0.447,27 1,27 L8,27 L8,13 L1,13 C0.447,13 0,12.553 0,12 C0,11.447 0.447,11 1,11 L9,11 C9.553,11 10,11.447 10,12 L10,28 C10,28.553 9.553,29 9,29" id="Fill-4"></path>
                        <path d="M30,40 C29.447,40 29,39.553 29,39 L29,1 C29,0.447 29.447,0 30,0 C30.553,0 31,0.447 31,1 L31,39 C31,39.553 30.553,40 30,40" id="Fill-5"></path>
                        <path d="M30,13 C26.141,13 23,16.141 23,20 C23,23.859 26.141,27 30,27 C33.859,27 37,23.859 37,20 C37,16.141 33.859,13 30,13 M30,29 C25.037,29 21,24.963 21,20 C21,15.037 25.037,11 30,11 C34.963,11 39,15.037 39,20 C39,24.963 34.963,29 30,29" id="Fill-6"></path>
                    </g>
                </g>
            </g>
        </g>
    </g>
</svg>