<?xml version="1.0" encoding="UTF-8"?>
<svg width="60px" height="60px" viewBox="0 0 60 60" version="1.1" xmlns="http://www.w3.org/2000/svg" xmlns:xlink="http://www.w3.org/1999/xlink">
    <defs>
        <polygon id="path-1" points="0 0 59.1115 0 59.1115 60 0 60"></polygon>
    </defs>
    <g id="Gapstars" stroke="none" stroke-width="1" fill="none" fill-rule="evenodd">
        <g id="Digital-FC-2022---Homepage-header-alt-001-Copy" transform="translate(-206.000000, -223.000000)">
            <g id="Group-8" transform="translate(206.000000, 223.000000)">
                <mask id="mask-2" fill="white">
                    <use xlink:href="#path-1"></use>
                </mask>
                <g id="Clip-2"></g>
                <path d="M2.037,58 L9.118,58 L9.118,44 L2.037,44 L2.037,58 Z M10.118,60 L1.037,60 C0.485,60 0.037,59.552 0.037,59 L0.037,43 C0.037,42.448 0.485,42 1.037,42 L10.118,42 C10.671,42 11.118,42.448 11.118,43 L11.118,59 C11.118,59.552 10.671,60 10.118,60 L10.118,60 Z" id="Fill-1" fill="#FFFFFF" mask="url(#mask-2)"></path>
                <path d="M18.118,58 L25.037,58 L25.037,31 L18.118,31 L18.118,58 Z M26.037,60 L17.118,60 C16.566,60 16.118,59.552 16.118,59 L16.118,30 C16.118,29.448 16.566,29 17.118,29 L26.037,29 C26.59,29 27.037,29.448 27.037,30 L27.037,59 C27.037,59.552 26.59,60 26.037,60 L26.037,60 Z" id="Fill-3" fill="#FFFFFF" mask="url(#mask-2)"></path>
                <path d="M34.118,58 L41.037,58 L41.037,35 L34.118,35 L34.118,58 Z M42.037,60 L33.118,60 C32.566,60 32.118,59.552 32.118,59 L32.118,34 C32.118,33.448 32.566,33 33.118,33 L42.037,33 C42.59,33 43.037,33.448 43.037,34 L43.037,59 C43.037,59.552 42.59,60 42.037,60 L42.037,60 Z" id="Fill-4" fill="#FFFFFF" mask="url(#mask-2)"></path>
                <path d="M50.118,58 L57.037,58 L57.037,20 L50.118,20 L50.118,58 Z M58.037,60 L49.118,60 C48.566,60 48.118,59.552 48.118,59 L48.118,19 C48.118,18.448 48.566,18 49.118,18 L58.037,18 C58.59,18 59.037,18.448 59.037,19 L59.037,59 C59.037,59.552 58.59,60 58.037,60 L58.037,60 Z" id="Fill-5" fill="#FFFFFF" mask="url(#mask-2)"></path>
                <path d="M58.1115,11 C57.5585,11 57.1115,10.552 57.1115,10 L57.1115,2 L49.0375,2 C48.4845,2 48.0375,1.552 48.0375,1 C48.0375,0.448 48.4845,0 49.0375,0 L58.1115,0 C58.6645,0 59.1115,0.448 59.1115,1 L59.1115,10 C59.1115,10.552 58.6645,11 58.1115,11" id="Fill-6" fill="#FFFFFF" mask="url(#mask-2)"></path>
                <path d="M1.0002,37 C0.7362,37 0.4742,36.896 0.2772,36.691 C-0.1048,36.292 -0.0908,35.659 0.3092,35.277 L24.3462,12.277 C24.6842,11.954 25.2022,11.908 25.5922,12.168 L36.9272,19.725 L57.3482,0.276 C57.7462,-0.105 58.3792,-0.09 58.7622,0.311 C59.1432,0.71 59.1272,1.343 58.7272,1.724 L37.7272,21.724 C37.3882,22.046 36.8712,22.092 36.4822,21.832 L25.1492,14.277 L1.6912,36.723 C1.4982,36.908 1.2492,37 1.0002,37" id="Fill-7" fill="#FFFFFF" mask="url(#mask-2)"></path>
            </g>
        </g>
    </g>
</svg>