<?xml version="1.0" encoding="UTF-8"?>
<svg width="60px" height="61px" viewBox="0 0 60 61" version="1.1" xmlns="http://www.w3.org/2000/svg" xmlns:xlink="http://www.w3.org/1999/xlink">
    <g id="Gapstars" stroke="none" stroke-width="1" fill="none" fill-rule="evenodd">
        <g id="Digital-FC-2022---Homepage-header-alt-001-Copy" transform="translate(-206.000000, -393.000000)" fill="#FFFFFF">
            <g id="Group-11" transform="translate(206.000000, 393.000000)">
                <path d="M53,54.0625 C52.744,54.0625 52.488,53.9645 52.293,53.7695 L30.293,31.7695 C29.902,31.3785 29.902,30.7465 30.293,30.3555 C30.684,29.9645 31.316,29.9645 31.707,30.3555 L53.707,52.3555 C54.098,52.7465 54.098,53.3785 53.707,53.7695 C53.512,53.9645 53.256,54.0625 53,54.0625" id="Fill-1"></path>
                <path d="M53,60.0625 C52.447,60.0625 52,59.6145 52,59.0625 L52,53.0625 C52,52.5105 52.447,52.0625 53,52.0625 L59,52.0625 C59.553,52.0625 60,52.5105 60,53.0625 C60,53.6145 59.553,54.0625 59,54.0625 L54,54.0625 L54,59.0625 C54,59.6145 53.553,60.0625 53,60.0625" id="Fill-3"></path>
                <path d="M30,60.125 C13.458,60.125 0,46.639 0,30.063 C0,13.486 13.458,0 30,0 C46.542,0 60,13.486 60,30.063 C60,35.271 58.704,40.339 56.254,44.719 C55.983,45.2 55.374,45.373 54.893,45.103 C54.41,44.833 54.238,44.224 54.508,43.742 C56.793,39.66 58,34.93 58,30.063 C58,14.589 45.439,2 30,2 C14.561,2 2,14.589 2,30.063 C2,45.536 14.561,58.125 30,58.125 C35.005,58.125 39.918,56.791 44.208,54.268 C44.685,53.987 45.298,54.148 45.577,54.623 C45.856,55.099 45.698,55.712 45.222,55.992 C40.625,58.696 35.361,60.125 30,60.125" id="Fill-5"></path>
                <path d="M30,48.0625 C19.906,48.0625 12,40.1555 12,30.0625 C12,19.9695 19.906,12.0625 30,12.0625 C39.991,12.0625 48.119,20.1485 48.119,30.0885 C48.119,31.9365 47.843,33.7595 47.297,35.5055 C47.133,36.0315 46.568,36.3245 46.045,36.1615 C45.518,35.9975 45.224,35.4365 45.389,34.9085 C45.873,33.3565 46.119,31.7345 46.119,30.0885 C46.119,21.2515 38.888,14.0625 30,14.0625 C21.028,14.0625 14,21.0905 14,30.0625 C14,39.0345 21.028,46.0625 30,46.0625 C32.227,46.0625 33.86,45.8385 35.299,45.3355 C35.823,45.1545 36.391,45.4295 36.573,45.9505 C36.755,46.4725 36.48,47.0425 35.959,47.2245 C34.299,47.8045 32.461,48.0625 30,48.0625" id="Fill-7"></path>
                <path d="M30,25.0625 C27.243,25.0625 25,27.3055 25,30.0625 C25,32.8425 27.257,35.1045 30.031,35.1045 C32.795,35.1045 35.043,32.8565 35.043,30.0935 C35.043,27.3195 32.78,25.0625 30,25.0625 M30.031,37.1045 C26.154,37.1045 23,33.9455 23,30.0625 C23,26.2025 26.141,23.0625 30,23.0625 C33.884,23.0625 37.043,26.2165 37.043,30.0935 C37.043,33.9595 33.898,37.1045 30.031,37.1045" id="Fill-9"></path>
            </g>
        </g>
    </g>
</svg>