<?xml version="1.0" encoding="UTF-8"?>
<svg width="60px" height="60px" viewBox="0 0 60 60" version="1.1" xmlns="http://www.w3.org/2000/svg" xmlns:xlink="http://www.w3.org/1999/xlink">
    <g id="Gapstars" stroke="none" stroke-width="1" fill="none" fill-rule="evenodd">
        <g id="Digital-FC-2022---Homepage-header-alt-001-Copy" transform="translate(-539.000000, -223.000000)" fill="#FFFFFF">
            <g id="Group-17" transform="translate(539.000000, 223.000000)">
                <path d="M30,9.733 C29.447,9.733 29,9.285 29,8.733 L29,1 C29,0.447 29.447,0 30,0 C30.553,0 31,0.447 31,1 L31,8.733 C31,9.285 30.553,9.733 30,9.733" id="Fill-1"></path>
                <path d="M47.001,59.9996 C46.669,59.9996 46.345,59.8346 46.154,59.5336 L38.822,47.9336 C38.527,47.4666 38.667,46.8486 39.134,46.5536 C39.602,46.2576 40.22,46.3976 40.514,46.8646 L47.846,58.4656 C48.141,58.9326 48.001,59.5496 47.534,59.8446 C47.368,59.9496 47.184,59.9996 47.001,59.9996" id="Fill-3"></path>
                <path d="M12.999,59.9996 C12.816,59.9996 12.632,59.9496 12.466,59.8446 C11.999,59.5496 11.859,58.9326 12.154,58.4656 L19.488,46.8646 C19.784,46.3976 20.4,46.2576 20.868,46.5536 C21.335,46.8486 21.475,47.4666 21.18,47.9336 L13.846,59.5336 C13.655,59.8346 13.331,59.9996 12.999,59.9996" id="Fill-5"></path>
                <path d="M59,47.9996 L1,47.9996 C0.447,47.9996 0,47.5516 0,46.9996 L0,8.9996 C0,8.4476 0.447,7.9996 1,7.9996 C1.553,7.9996 2,8.4476 2,8.9996 L2,45.9996 L58,45.9996 L58,8.9996 C58,8.4476 58.447,7.9996 59,7.9996 C59.553,7.9996 60,8.4476 60,8.9996 L60,46.9996 C60,47.5516 59.553,47.9996 59,47.9996" id="Fill-7"></path>
                <path d="M59,9.9996 L1,9.9996 C0.447,9.9996 0,9.5516 0,8.9996 C0,8.4476 0.447,7.9996 1,7.9996 L59,7.9996 C59.553,7.9996 60,8.4476 60,8.9996 C60,9.5516 59.553,9.9996 59,9.9996" id="Fill-9"></path>
                <path d="M30,16.9996 C23.935,16.9996 19,21.9346 19,27.9996 C19,34.0646 23.935,38.9996 30,38.9996 C36.065,38.9996 41,34.0646 41,27.9996 C41,21.9346 36.065,16.9996 30,16.9996 M30,40.9996 C22.832,40.9996 17,35.1686 17,27.9996 C17,20.8306 22.832,14.9996 30,14.9996 C37.168,14.9996 43,20.8306 43,27.9996 C43,35.1686 37.168,40.9996 30,40.9996" id="Fill-11"></path>
                <path d="M42,28.9996 L30,28.9996 C29.447,28.9996 29,28.5516 29,27.9996 C29,27.4476 29.447,26.9996 30,26.9996 L42,26.9996 C42.553,26.9996 43,27.4476 43,27.9996 C43,28.5516 42.553,28.9996 42,28.9996" id="Fill-13"></path>
                <path d="M30,28.9996 C29.447,28.9996 29,28.5516 29,27.9996 L29,15.9996 C29,15.4476 29.447,14.9996 30,14.9996 C30.553,14.9996 31,15.4476 31,15.9996 L31,27.9996 C31,28.5516 30.553,28.9996 30,28.9996" id="Fill-15"></path>
            </g>
        </g>
    </g>
</svg>