<?xml version="1.0" encoding="UTF-8"?>
<svg width="60px" height="60px" viewBox="0 0 60 60" version="1.1" xmlns="http://www.w3.org/2000/svg" xmlns:xlink="http://www.w3.org/1999/xlink">
    <g id="Gapstars" stroke="none" stroke-width="1" fill="none" fill-rule="evenodd">
        <g id="Digital-FC-2022---Homepage-header-alt-001-Copy" transform="translate(-539.000000, -393.000000)" fill="#FFFFFF">
            <g id="Group-17" transform="translate(539.000000, 393.000000)">
                <path d="M30,9.732 C29.447,9.732 29,9.284 29,8.732 L29,1 C29,0.447 29.447,0 30,0 C30.553,0 31,0.447 31,1 L31,8.732 C31,9.284 30.553,9.732 30,9.732" id="Fill-1"></path>
                <path d="M47.001,59.9996 C46.669,59.9996 46.345,59.8346 46.154,59.5336 L38.822,47.9336 C38.527,47.4666 38.667,46.8486 39.134,46.5536 C39.603,46.2576 40.22,46.3976 40.514,46.8646 L47.846,58.4656 C48.141,58.9326 48.001,59.5496 47.534,59.8446 C47.368,59.9496 47.184,59.9996 47.001,59.9996" id="Fill-3"></path>
                <path d="M12.999,59.9996 C12.816,59.9996 12.632,59.9496 12.466,59.8446 C11.999,59.5496 11.859,58.9326 12.154,58.4656 L19.488,46.8646 C19.784,46.3976 20.4,46.2576 20.868,46.5536 C21.335,46.8486 21.475,47.4666 21.18,47.9336 L13.846,59.5336 C13.655,59.8346 13.331,59.9996 12.999,59.9996" id="Fill-5"></path>
                <path d="M59,47.9996 L1,47.9996 C0.447,47.9996 0,47.5516 0,46.9996 L0,8.9996 C0,8.4476 0.447,7.9996 1,7.9996 C1.553,7.9996 2,8.4476 2,8.9996 L2,45.9996 L58,45.9996 L58,8.9996 C58,8.4476 58.447,7.9996 59,7.9996 C59.553,7.9996 60,8.4476 60,8.9996 L60,46.9996 C60,47.5516 59.553,47.9996 59,47.9996" id="Fill-7"></path>
                <path d="M59,9.9996 L1,9.9996 C0.447,9.9996 0,9.5516 0,8.9996 C0,8.4476 0.447,7.9996 1,7.9996 L59,7.9996 C59.553,7.9996 60,8.4476 60,8.9996 C60,9.5516 59.553,9.9996 59,9.9996" id="Fill-9"></path>
                <path d="M10,37.9996 C9.73,37.9996 9.46,37.8906 9.263,37.6756 C8.89,37.2686 8.917,36.6356 9.324,36.2626 L21.324,25.2626 C21.646,24.9686 22.118,24.9166 22.496,25.1316 L35.777,32.7206 L48.574,17.7486 C48.932,17.3286 49.564,17.2806 49.983,17.6386 C50.403,17.9976 50.453,18.6286 50.094,19.0486 L36.76,34.6496 C36.448,35.0146 35.919,35.1046 35.504,34.8676 L22.138,27.2296 L10.676,37.7366 C10.483,37.9126 10.241,37.9996 10,37.9996" id="Fill-11"></path>
                <path d="M50,18.9996 L42,18.9996 C41.447,18.9996 41,18.5516 41,17.9996 C41,17.4476 41.447,16.9996 42,16.9996 L50,16.9996 C50.553,16.9996 51,17.4476 51,17.9996 C51,18.5516 50.553,18.9996 50,18.9996" id="Fill-13"></path>
                <path d="M50,26.9996 C49.447,26.9996 49,26.5516 49,25.9996 L49,17.9996 C49,17.4476 49.447,16.9996 50,16.9996 C50.553,16.9996 51,17.4476 51,17.9996 L51,25.9996 C51,26.5516 50.553,26.9996 50,26.9996" id="Fill-15"></path>
            </g>
        </g>
    </g>
</svg>