<?xml version="1.0" encoding="UTF-8"?>
<svg width="60px" height="60px" viewBox="0 0 60 60" version="1.1" xmlns="http://www.w3.org/2000/svg" xmlns:xlink="http://www.w3.org/1999/xlink">
    <defs>
        <polygon id="path-1" points="0 0 38 0 38 23.2661 0 23.2661"></polygon>
    </defs>
    <g id="Gapstars" stroke="none" stroke-width="1" fill="none" fill-rule="evenodd">
        <g id="Digital-FC-2022---Homepage-header-alt-001-Copy" transform="translate(-372.000000, -223.000000)">
            <g id="Group-22" transform="translate(372.000000, 223.000000)">
                <g id="Group-3" transform="translate(11.000000, 0.000000)">
                    <mask id="mask-2" fill="white">
                        <use xlink:href="#path-1"></use>
                    </mask>
                    <g id="Clip-2"></g>
                    <path d="M37,23.2661 C36.447,23.2661 36,22.8181 36,22.2661 L36,1.9991 L2,1.9991 L2,22.2661 C2,22.8181 1.553,23.2661 1,23.2661 C0.447,23.2661 0,22.8181 0,22.2661 L0,0.9991 C0,0.4471 0.447,-0.0009 1,-0.0009 L37,-0.0009 C37.553,-0.0009 38,0.4471 38,0.9991 L38,22.2661 C38,22.8181 37.553,23.2661 37,23.2661" id="Fill-1" fill="#FFFFFF" mask="url(#mask-2)"></path>
                </g>
                <path d="M30,40.9995 C19.523,40.9995 11,32.4765 11,21.9995 C11,21.4475 11.447,20.9995 12,20.9995 C12.553,20.9995 13,21.4475 13,21.9995 C13,31.3735 20.626,38.9995 30,38.9995 C39.374,38.9995 47,31.3735 47,21.9995 C47,21.4475 47.447,20.9995 48,20.9995 C48.553,20.9995 49,21.4475 49,21.9995 C49,32.4765 40.477,40.9995 30,40.9995" id="Fill-4" fill="#FFFFFF"></path>
                <path d="M48,17.9995 C47.447,17.9995 47,17.5515 47,16.9995 C47,16.4475 47.447,15.9995 48,15.9995 C53.266,15.9995 57.428,10.8295 57.945,5.9995 L48,5.9995 C47.447,5.9995 47,5.5515 47,4.9995 C47,4.4475 47.447,3.9995 48,3.9995 L59,3.9995 C59.553,3.9995 60,4.4475 60,4.9995 C60,11.0115 54.758,17.9995 48,17.9995" id="Fill-6" fill="#FFFFFF"></path>
                <path d="M12,17.9995 C5.242,17.9995 0,11.0115 0,4.9995 C0,4.4475 0.447,3.9995 1,3.9995 L12,3.9995 C12.553,3.9995 13,4.4475 13,4.9995 C13,5.5515 12.553,5.9995 12,5.9995 L2.055,5.9995 C2.572,10.8295 6.734,15.9995 12,15.9995 C12.553,15.9995 13,16.4475 13,16.9995 C13,17.5515 12.553,17.9995 12,17.9995" id="Fill-8" fill="#FFFFFF"></path>
                <path d="M17,60 C16.876,60 16.75,59.977 16.629,59.928 C16.116,59.723 15.866,59.141 16.071,58.628 L18.071,53.627 C18.276,53.114 18.861,52.867 19.371,53.07 C19.884,53.275 20.134,53.857 19.929,54.37 L17.929,59.371 C17.772,59.762 17.396,60 17,60" id="Fill-10" fill="#FFFFFF"></path>
                <path d="M43,59.9995 L17,59.9995 C16.447,59.9995 16,59.5515 16,58.9995 C16,58.4475 16.447,57.9995 17,57.9995 L43,57.9995 C43.553,57.9995 44,58.4475 44,58.9995 C44,59.5515 43.553,59.9995 43,59.9995" id="Fill-12" fill="#FFFFFF"></path>
                <path d="M19,54.9985 C18.447,54.9985 18,54.5505 18,53.9985 C18,53.4465 18.447,52.9985 19,52.9985 C22.878,52.9985 26,48.9135 26,45.5315 L26,40.1285 C26,39.5765 26.447,39.1285 27,39.1285 C27.553,39.1285 28,39.5765 28,40.1285 L28,45.5315 C28,49.9095 24.068,54.9985 19,54.9985" id="Fill-14" fill="#FFFFFF"></path>
                <path d="M43,60 C42.603,60 42.227,59.762 42.071,59.371 L40.071,54.37 C39.866,53.857 40.116,53.275 40.629,53.07 C41.137,52.867 41.724,53.114 41.929,53.627 L43.929,58.628 C44.134,59.141 43.884,59.723 43.371,59.928 C43.25,59.977 43.124,60 43,60" id="Fill-16" fill="#FFFFFF"></path>
                <path d="M41,54.9985 C35.932,54.9985 32,49.9095 32,45.5315 L32,40.1285 C32,39.5765 32.447,39.1285 33,39.1285 C33.553,39.1285 34,39.5765 34,40.1285 L34,45.5315 C34,48.9135 37.122,52.9985 41,52.9985 C41.553,52.9985 42,53.4465 42,53.9985 C42,54.5505 41.553,54.9985 41,54.9985" id="Fill-18" fill="#FFFFFF"></path>
                <path d="M24.0752,15.8071 L26.7172,18.5131 C26.9382,18.7401 27.0392,19.0591 26.9882,19.3721 L26.3752,23.1281 L29.5162,21.3911 C29.8172,21.2241 30.1812,21.2241 30.4842,21.3911 L33.6232,23.1271 L33.0112,19.3721 C32.9612,19.0581 33.0612,18.7401 33.2832,18.5131 L35.9252,15.8071 L32.3172,15.2551 C31.9882,15.2051 31.7052,14.9931 31.5632,14.6911 L29.9992,11.3551 L28.4322,14.6921 C28.2912,14.9931 28.0082,15.2051 27.6792,15.2551 L24.0752,15.8071 Z M34.9402,25.9991 C34.7742,25.9991 34.6072,25.9581 34.4562,25.8741 L30.0002,23.4091 L25.5392,25.8741 C25.2052,26.0601 24.7922,26.0371 24.4792,25.8171 C24.1672,25.5961 24.0072,25.2161 24.0682,24.8381 L24.9322,19.5491 L21.2842,15.8111 C21.0222,15.5431 20.9322,15.1511 21.0522,14.7951 C21.1712,14.4401 21.4782,14.1811 21.8482,14.1241 L26.8482,13.3591 L29.0952,8.5771 C29.2602,8.2261 29.6122,8.0011 30.0002,8.0011 C30.3872,8.0011 30.7412,8.2261 30.9052,8.5771 L33.1472,13.3591 L38.1512,14.1241 C38.5212,14.1811 38.8292,14.4401 38.9482,14.7951 C39.0672,15.1511 38.9772,15.5431 38.7162,15.8111 L35.0672,19.5491 L35.9272,24.8391 C35.9892,25.2171 35.8292,25.5971 35.5152,25.8171 C35.3442,25.9381 35.1422,25.9991 34.9402,25.9991 L34.9402,25.9991 Z" id="Fill-20" fill="#FFFFFF"></path>
            </g>
        </g>
    </g>
</svg>